<svg xmlns="http://www.w3.org/2000/svg"><defs>
    <style>
      .amazon_cls-1 {
        fill: #fff;
      }

      .amazon_cls-2 {
        fill: #f8991d;
      }

      .amazon_cls-2, .amazon_cls-3 {
        fill-rule: evenodd;
      }

      .amazon_cls-3 {
        fill: #111;
      }
    </style>
  
    <style>
      .cls-1d, .cls-2d {
        fill-rule: evenodd;
      }

      .cls-1d, .cls-3d {
        fill: #016fd0;
      }

      .cls-2d {
        fill: #fff;
      }
    </style>
  
    <style>
      .cls-1, .cls-2 {
        fill: #fff;
      }

      .cls-2, .cls-3 {
        fill-rule: evenodd;
      }

      .cls-4 {
        fill: #ee8414;
      }

      .cls-5 {
        fill: #130b5e;
      }

      .cls-6 {
        fill: #e20020;
      }

      .cls-3, .cls-7 {
        fill: #1e306d;
      }
    </style>
  
    <style>
      .__cls-1 {
        fill: #fff;
      }

      .__cls-1, .__cls-2 {
        fill-rule: evenodd;
      }

      .__cls-2 {
        fill: #0094cb;
      }

      .__cls-3 {
        fill: #003082;
      }
    </style>
  
    <style>
      .cls-1z {
        fill: #f79f1a;
      }

      .cls-2z {
        fill: #fff;
      }

      .cls-3z {
        fill: #1e306d;
      }
    </style>
  
        <path id="stumbleupon-path-1" d="M0,0.0749333333 L31.9250667,0.0749333333 L31.9250667,31.984 L0,31.984"/>
    </defs><symbol viewBox="0 0 24 24" id="icon-add"><path d="M19 13h-6v6h-2v-6H5v-2h6V5h2v6h6v2z"/></symbol><symbol viewBox="0 0 20 19" id="icon-admin-brush">
<path d="M5 12C3.34 12 2 13.34 2 15C2 16.31 0.84 17 0 17C0.92 18.22 2.49 19 4 19C6.21 19 8 17.21 8 15C8 13.34 6.66 12 5 12ZM18.71 2.63L17.37 1.29C16.98 0.899999 16.35 0.899999 15.96 1.29L7 10.25L9.75 13L18.71 4.04C19.1 3.65 19.1 3.02 18.71 2.63Z" fill="#3E67F8"/>
</symbol><symbol viewBox="0 0 12 8" id="icon-admin-close">
<path d="M5.28997 0.70998L0.699971 5.29998C0.309971 5.68998 0.309971 6.31998 0.699971 6.70998C1.08997 7.09998 1.71997 7.09998 2.10997 6.70998L5.99997 2.82998L9.87997 6.70998C10.27 7.09998 10.9 7.09998 11.29 6.70998C11.68 6.31998 11.68 5.68998 11.29 5.29998L6.69997 0.70998C6.31997 0.31998 5.67997 0.31998 5.28997 0.70998Z" fill="#5E637A"/>
</symbol><symbol viewBox="0 0 19 19" id="icon-admin-edit">
<path d="M0 15.46V18.5C0 18.78 0.22 19 0.5 19H3.54C3.67 19 3.8 18.95 3.89 18.85L14.81 7.94L11.06 4.19L0.15 15.1C0.0500001 15.2 0 15.32 0 15.46ZM17.71 5.04C18.1 4.65 18.1 4.02 17.71 3.63L15.37 1.29C14.98 0.899999 14.35 0.899999 13.96 1.29L12.13 3.12L15.88 6.87L17.71 5.04Z" fill="#3E67F8"/>
</symbol><symbol viewBox="0 0 18 18" id="icon-admin-link">
<path d="M15 16H3C2.45 16 2 15.55 2 15V3C2 2.45 2.45 2 3 2H8C8.55 2 9 1.55 9 1C9 0.45 8.55 0 8 0H2C0.89 0 0 0.9 0 2V16C0 17.1 0.9 18 2 18H16C17.1 18 18 17.1 18 16V10C18 9.45 17.55 9 17 9C16.45 9 16 9.45 16 10V15C16 15.55 15.55 16 15 16ZM11 1C11 1.55 11.45 2 12 2H14.59L5.46 11.13C5.07 11.52 5.07 12.15 5.46 12.54C5.85 12.93 6.48 12.93 6.87 12.54L16 3.41V6C16 6.55 16.45 7 17 7C17.55 7 18 6.55 18 6V0H12C11.45 0 11 0.45 11 1Z" fill="#3E67F8"/>
</symbol><symbol viewBox="0 0 20 20" id="icon-admin-tooltip">
<path d="M10 0C4.48 0 0 4.48 0 10C0 15.52 4.48 20 10 20C15.52 20 20 15.52 20 10C20 4.48 15.52 0 10 0ZM10 15C9.45 15 9 14.55 9 14V10C9 9.45 9.45 9 10 9C10.55 9 11 9.45 11 10V14C11 14.55 10.55 15 10 15ZM11 7H9V5H11V7Z" fill="#5E637A"/>
</symbol><symbol viewBox="0 0 36 36" id="icon-arrow-down">
<path d="M16.5 6v18.26l-8.38-8.38-2.12 2.12 12 12 12-12-2.12-2.12-8.38 8.38v-18.26h-3z"/>
</symbol><symbol viewBox="0 0 64 64" id="icon-cart-svg">
<path class="st0" d="M26.9,58.3c0,2.6-2.1,4.8-4.8,4.8s-4.8-2.1-4.8-4.8s2.1-4.8,4.8-4.8S26.9,55.6,26.9,58.3z M48.5,53.5
	c-2.6,0-4.8,2.1-4.8,4.8s2.1,4.8,4.8,4.8c2.6,0,4.8-2.1,4.8-4.8S51.1,53.5,48.5,53.5z M35.6,31.9c0-2.2-1.8-3.9-3.9-3.9H3.9
	C1.8,28,0,29.7,0,31.9c0,2.2,1.8,3.9,3.9,3.9h27.7C33.9,35.9,35.6,34.1,35.6,31.9z M63.3,15.9c-0.8-1-2-1.7-3.3-1.7H16.2l-2.4-9.9
	c-0.4-1.8-2-3.1-3.9-3.1H4c-2.2,0-4,1.8-4,4s1.8,4,4,4h2.7l2.4,9.9c0.4,1.8,2,3.1,3.9,3.1h41.4l-6.6,19.5H14c-2.2,0-4,1.8-4,4
	s1.8,4,4,4h36.7c1.7,0,3.2-1.1,3.8-2.7l9.3-27.5C64.2,18.3,64,16.9,63.3,15.9z"/>
</symbol><symbol viewBox="0 0 12 8" id="icon-chevron-down"><path d="M6 6.174l5.313-4.96.23-.214.457.427-.23.214-5.51 5.146L6.03 7 6 6.972 5.97 7l-.23-.214L.23 1.64 0 1.428.458 1l.23.214L6 6.174z" stroke-linecap="square" fill-rule="evenodd"/></symbol><symbol viewBox="0 0 24 24" id="icon-chevron-left"><path d="M15.41 7.41L14 6l-6 6 6 6 1.41-1.41L10.83 12z"/></symbol><symbol viewBox="0 0 24 24" id="icon-chevron-right"><path d="M10 6L8.59 7.41 13.17 12l-4.58 4.59L10 18l6-6z"/></symbol><symbol viewBox="0 0 24 24" id="icon-close"><path d="M19 6.41L17.59 5 12 10.59 6.41 5 5 6.41 10.59 12 5 17.59 6.41 19 12 13.41 17.59 19 19 17.59 13.41 12z"/></symbol><symbol viewBox="0 0 28 28" id="icon-envelope">
<path d="M0 23.5v-12.406q0.688 0.766 1.578 1.359 5.656 3.844 7.766 5.391 0.891 0.656 1.445 1.023t1.477 0.75 1.719 0.383h0.031q0.797 0 1.719-0.383t1.477-0.75 1.445-1.023q2.656-1.922 7.781-5.391 0.891-0.609 1.563-1.359v12.406q0 1.031-0.734 1.766t-1.766 0.734h-23q-1.031 0-1.766-0.734t-0.734-1.766zM0 6.844q0-1.219 0.648-2.031t1.852-0.812h23q1.016 0 1.758 0.734t0.742 1.766q0 1.234-0.766 2.359t-1.906 1.922q-5.875 4.078-7.313 5.078-0.156 0.109-0.664 0.477t-0.844 0.594-0.812 0.508-0.898 0.422-0.781 0.141h-0.031q-0.359 0-0.781-0.141t-0.898-0.422-0.812-0.508-0.844-0.594-0.664-0.477q-1.422-1-4.094-2.852t-3.203-2.227q-0.969-0.656-1.828-1.805t-0.859-2.133z"/>
</symbol><symbol viewBox="0 0 32 32" id="icon-facebook">
<path d="M2.428 0.41c-0.936 0-1.695 0.753-1.695 1.682v27.112c0 0.929 0.759 1.682 1.695 1.682h14.709v-11.802h-4.002v-4.599h4.002v-3.392c0-3.936 2.423-6.080 5.961-6.080 1.695 0 3.152 0.125 3.576 0.181v4.114l-2.454 0.001c-1.924 0-2.297 0.907-2.297 2.239v2.937h4.59l-0.598 4.599h-3.992v11.802h7.826c0.936 0 1.695-0.753 1.695-1.682v-27.112c0-0.929-0.759-1.682-1.695-1.682h-27.321z"/>
</symbol><symbol viewBox="0 0 20 28" id="icon-google">
<path d="M1.734 21.156q0-1.266 0.695-2.344t1.852-1.797q2.047-1.281 6.312-1.563-0.5-0.641-0.742-1.148t-0.242-1.148q0-0.625 0.328-1.328-0.719 0.063-1.062 0.063-2.312 0-3.898-1.508t-1.586-3.82q0-1.281 0.562-2.484t1.547-2.047q1.188-1.031 2.844-1.531t3.406-0.5h6.516l-2.141 1.375h-2.063q1.172 0.984 1.766 2.078t0.594 2.5q0 1.125-0.383 2.023t-0.93 1.453-1.086 1.016-0.922 0.961-0.383 1.031q0 0.562 0.5 1.102t1.203 1.062 1.414 1.148 1.211 1.625 0.5 2.219q0 1.422-0.766 2.703-1.109 1.906-3.273 2.805t-4.664 0.898q-2.063 0-3.852-0.648t-2.695-2.148q-0.562-0.922-0.562-2.047zM4.641 20.438q0 0.875 0.367 1.594t0.953 1.18 1.359 0.781 1.563 0.453 1.586 0.133q0.906 0 1.742-0.203t1.547-0.609 1.141-1.141 0.43-1.703q0-0.391-0.109-0.766t-0.227-0.656-0.422-0.648-0.461-0.547-0.602-0.539-0.57-0.453-0.648-0.469-0.57-0.406q-0.25-0.031-0.766-0.031-0.828 0-1.633 0.109t-1.672 0.391-1.516 0.719-1.070 1.164-0.422 1.648zM6.297 4.906q0 0.719 0.156 1.523t0.492 1.609 0.812 1.445 1.172 1.047 1.508 0.406q0.578 0 1.211-0.258t1.023-0.68q0.828-0.875 0.828-2.484 0-0.922-0.266-1.961t-0.75-2.016-1.313-1.617-1.828-0.641q-0.656 0-1.289 0.305t-1.039 0.82q-0.719 0.922-0.719 2.5z"/>
</symbol><symbol viewBox="0 0 32 32" id="icon-instagram">
    <path d="M25.522709,13.5369502 C25.7256898,14.3248434 25.8455558,15.1480745 25.8455558,15.9992932 C25.8455558,21.4379334 21.4376507,25.8455558 15.9998586,25.8455558 C10.5623493,25.8455558 6.15416148,21.4379334 6.15416148,15.9992932 C6.15416148,15.1480745 6.27459295,14.3248434 6.4775737,13.5369502 L3.6915357,13.5369502 L3.6915357,27.0764447 C3.6915357,27.7552145 4.24280653,28.3062027 4.92355534,28.3062027 L27.0764447,28.3062027 C27.7571935,28.3062027 28.3084643,27.7552145 28.3084643,27.0764447 L28.3084643,13.5369502 L25.522709,13.5369502 Z M27.0764447,3.6915357 L23.384909,3.6915357 C22.7050083,3.6915357 22.1543028,4.24280653 22.1543028,4.92214183 L22.1543028,8.61509104 C22.1543028,9.29442633 22.7050083,9.84569717 23.384909,9.84569717 L27.0764447,9.84569717 C27.7571935,9.84569717 28.3084643,9.29442633 28.3084643,8.61509104 L28.3084643,4.92214183 C28.3084643,4.24280653 27.7571935,3.6915357 27.0764447,3.6915357 Z M9.84597988,15.9992932 C9.84597988,19.3976659 12.6009206,22.1537374 15.9998586,22.1537374 C19.3987967,22.1537374 22.1543028,19.3976659 22.1543028,15.9992932 C22.1543028,12.6003551 19.3987967,9.84569717 15.9998586,9.84569717 C12.6009206,9.84569717 9.84597988,12.6003551 9.84597988,15.9992932 Z M3.6915357,31.9997173 C1.65296441,31.9997173 0,30.3461875 0,28.3062027 L0,3.6915357 C0,1.6526817 1.65296441,0 3.6915357,0 L28.3084643,0 C30.3473183,0 32,1.6526817 32,3.6915357 L32,28.3062027 C32,30.3461875 30.3473183,31.9997173 28.3084643,31.9997173 L3.6915357,31.9997173 Z" id="instagram-Imported-Layers"/>
</symbol><symbol viewBox="0 0 24 24" id="icon-keyboard-arrow-down"><path d="M7.41 7.84L12 12.42l4.59-4.58L18 9.25l-6 6-6-6z"/></symbol><symbol viewBox="0 0 24 24" id="icon-keyboard-arrow-up"><path d="M7.41 15.41L12 10.83l4.59 4.58L18 14l-6-6-6 6z"/></symbol><symbol viewBox="0 0 32 32" id="icon-linkedin">
    <path d="M27.2684444,27.2675556 L22.5226667,27.2675556 L22.5226667,19.8408889 C22.5226667,18.0702222 22.4924444,15.792 20.0568889,15.792 C17.5866667,15.792 17.2097778,17.7217778 17.2097778,19.7146667 L17.2097778,27.2675556 L12.4693333,27.2675556 L12.4693333,11.9964444 L17.0186667,11.9964444 L17.0186667,14.0844444 L17.0844444,14.0844444 C17.7173333,12.8835556 19.2657778,11.6177778 21.5742222,11.6177778 C26.3804444,11.6177778 27.2684444,14.7795556 27.2684444,18.8924444 L27.2684444,27.2675556 L27.2684444,27.2675556 Z M7.11822222,9.91022222 C5.59377778,9.91022222 4.36444444,8.67733333 4.36444444,7.15733333 C4.36444444,5.63822222 5.59377778,4.40533333 7.11822222,4.40533333 C8.63644444,4.40533333 9.86844444,5.63822222 9.86844444,7.15733333 C9.86844444,8.67733333 8.63644444,9.91022222 7.11822222,9.91022222 L7.11822222,9.91022222 Z M4.74133333,11.9964444 L9.49244444,11.9964444 L9.49244444,27.2675556 L4.74133333,27.2675556 L4.74133333,11.9964444 Z M29.632,0 L2.36,0 C1.05777778,0 0,1.03288889 0,2.30755556 L0,29.6906667 C0,30.9653333 1.05777778,32 2.36,32 L29.632,32 C30.9368889,32 31.9991111,30.9653333 31.9991111,29.6906667 L31.9991111,2.30755556 C31.9991111,1.03288889 30.9368889,0 29.632,0 L29.632,0 Z" id="linkedin-Fill-4"/>
</symbol><symbol viewBox="0 0 24 24" id="icon-lock"><path d="M18 8h-1V6c0-2.76-2.24-5-5-5S7 3.24 7 6v2H6c-1.1 0-2 .9-2 2v10c0 1.1.9 2 2 2h12c1.1 0 2-.9 2-2V10c0-1.1-.9-2-2-2zm-6 9c-1.1 0-2-.9-2-2s.9-2 2-2 2 .9 2 2-.9 2-2 2zm3.1-9H8.9V6c0-1.71 1.39-3.1 3.1-3.1 1.71 0 3.1 1.39 3.1 3.1v2z"/></symbol><symbol viewBox="0 0 60.4 42.02" id="icon-logo-amazonpay">
  
  <rect id="logo-amazonpay-Rectangle_43-2" data-name="Rectangle 43-2" class="amazon_cls-1" width="60.4" height="42.02" rx="2" ry="2"/>
  <path id="logo-amazonpay-Path_476" data-name="Path 476" class="amazon_cls-2" d="m24.73,24.27c-2.24,1.52-4.89,2.33-7.59,2.32-3.42.02-6.73-1.24-9.27-3.54-.19-.17-.02-.41.21-.28,2.83,1.62,6.02,2.46,9.28,2.46,2.43-.01,4.84-.5,7.08-1.45.35-.15.64.23.3.48"/>
  <path id="logo-amazonpay-Path_477" data-name="Path 477" class="amazon_cls-2" d="m25.59,23.3c-.26-.34-1.74-.16-2.4-.08-.2.02-.23-.15-.05-.28,1-.63,2.23-.74,3.32-.31.14,1.17-.29,2.34-1.16,3.13-.17.14-.33.07-.26-.12.25-.62.8-2,.54-2.34"/>
  <path id="logo-amazonpay-Path_478" data-name="Path 478" class="amazon_cls-3" d="m23.24,17.11v-.8c0-.11.09-.2.2-.2h3.6c.11,0,.2.08.21.19,0,0,0,0,0,0v.68c-.05.19-.14.36-.27.5l-1.86,2.66c.71-.04,1.42.11,2.05.44.12.06.19.18.19.31v.85c0,.12-.13.25-.26.18-1.19-.61-2.61-.61-3.8,0-.12.07-.26-.07-.26-.19v-.81c-.01-.19.04-.39.13-.55l2.16-3.1h-1.88c-.11,0-.2-.08-.21-.19,0,0,0,0,0,0"/>
  <path id="logo-amazonpay-Path_479" data-name="Path 479" class="amazon_cls-3" d="m10.12,22.12h-1.09c-.1,0-.19-.08-.2-.18v-5.61c0-.11.1-.2.21-.2h1.02c.11,0,.19.08.2.19v.73h.02c.25-.79,1.1-1.22,1.89-.97.46.15.83.51.97.97.31-.83,1.25-1.26,2.08-.94.28.1.52.28.7.51.27.54.37,1.16.28,1.76v3.54c0,.11-.1.2-.21.2h-1.09c-.11,0-.2-.09-.2-.2v-2.97c.02-.35,0-.7-.03-1.05-.04-.31-.33-.53-.64-.49-.29,0-.55.19-.65.46-.09.35-.12.71-.1,1.08v2.97c0,.11-.1.2-.21.2h-1.09c-.11,0-.2-.09-.2-.2v-2.97c0-.63.1-1.55-.67-1.55s-.76.9-.76,1.55v2.97c0,.11-.1.2-.21.2"/>
  <path id="logo-amazonpay-Path_480" data-name="Path 480" class="amazon_cls-3" d="m30.35,17.14c-.81,0-.86,1.1-.86,1.78s-.01,2.15.85,2.15.89-1.18.89-1.9c.02-.5-.03-1-.16-1.49-.07-.33-.37-.57-.71-.54m-.01-1.15c1.62,0,2.5,1.39,2.5,3.17s-.97,3.07-2.5,3.07-2.46-1.39-2.46-3.13.88-3.11,2.46-3.11"/>
  <path id="logo-amazonpay-Path_481" data-name="Path 481" class="amazon_cls-3" d="m34.94,22.12h-1.09c-.11,0-.2-.09-.2-.2v-5.61c.01-.11.1-.19.21-.18h1.01c.09,0,.17.07.19.16v.86h.02c.16-.69.79-1.16,1.49-1.14.51-.02,1,.23,1.28.66.24.55.34,1.15.29,1.75v3.54c-.02.1-.11.18-.21.18h-1.1c-.1,0-.18-.08-.19-.18v-3.05c0-.61.07-1.51-.68-1.51-.28.01-.53.19-.63.45-.13.34-.19.7-.17,1.06v3.02c0,.11-.1.2-.21.2"/>
  <path id="logo-amazonpay-Path_482" data-name="Path 482" class="amazon_cls-3" d="m21.47,22.1c-.07.06-.18.07-.26.03-.25-.2-.46-.45-.63-.73-.44.54-1.11.83-1.8.8-.86.05-1.59-.6-1.64-1.46,0-.08,0-.16,0-.24-.03-.78.44-1.5,1.17-1.79.66-.22,1.36-.35,2.06-.38v-.15c.03-.27-.01-.55-.13-.79-.15-.19-.38-.3-.61-.28-.42-.03-.79.25-.88.66-.01.1-.09.18-.19.2l-1.06-.11c-.11-.01-.18-.11-.17-.22,0,0,0,0,0-.01.26-1.09,1.29-1.8,2.4-1.67h.08c.58-.02,1.16.18,1.61.54.53.5.48,1.16.48,1.88v1.7c0,.38.15.74.41,1.01.08.08.08.21,0,.29-.22.19-.62.53-.84.73h0Zm-1.1-2.67c.04.4-.03.8-.2,1.16-.14.29-.43.48-.76.5-.42,0-.67-.32-.67-.79,0-.93.83-1.1,1.63-1.1v.23Z"/>
  <path id="logo-amazonpay-Path_483" data-name="Path 483" class="amazon_cls-3" d="m7.14,22.1c-.07.06-.18.07-.26.03-.25-.2-.46-.45-.63-.73-.44.54-1.11.83-1.8.8-.86.05-1.59-.6-1.64-1.45,0-.08,0-.17,0-.25-.03-.78.44-1.5,1.17-1.79.66-.22,1.36-.35,2.06-.38v-.14c.03-.27-.01-.55-.13-.79-.15-.19-.38-.3-.61-.28-.42-.03-.79.25-.88.66-.01.1-.09.18-.19.2l-1.06-.11c-.11-.01-.18-.11-.17-.21,0,0,0-.01,0-.02.26-1.09,1.29-1.8,2.4-1.67h.08c.58-.02,1.16.18,1.61.54.53.5.48,1.16.48,1.88v1.7c0,.38.15.74.41,1.02.08.08.08.21,0,.29-.22.19-.62.53-.84.73h0Zm-1.1-2.67c.04.4-.03.8-.2,1.16-.14.29-.43.48-.76.5-.42,0-.66-.32-.66-.79,0-.93.84-1.1,1.63-1.1v.23Z"/>
  <path id="logo-amazonpay-Path_484" data-name="Path 484" class="amazon_cls-3" d="m53.09,24.13v-.41c0-.12.06-.2.18-.19.26.05.52.05.78.02.3-.07.54-.28.64-.57.18-.41.3-.74.37-.96l-2.27-5.64c-.04-.1-.05-.27.14-.27h.8c.12,0,.22.08.25.19l1.65,4.58,1.57-4.58c.03-.11.13-.19.25-.19h.75c.19,0,.18.18.14.27l-2.25,5.81c-.29.77-.68,2.01-1.56,2.22-.44.11-.89.09-1.32-.06-.07-.05-.12-.13-.11-.22"/>
  <path id="logo-amazonpay-Path_485" data-name="Path 485" class="amazon_cls-3" d="m52.04,21.77c0,.11-.09.19-.19.19h-.56c-.11,0-.2-.08-.22-.19l-.06-.38c-.27.23-.58.41-.92.54-.67.29-1.43.26-2.06-.1-.47-.32-.74-.86-.71-1.42-.01-.45.15-.88.44-1.21.45-.45,1.07-.69,1.71-.65.5,0,1.01.06,1.49.2v-.77c0-.78-.33-1.12-1.2-1.12-.64,0-1.27.11-1.88.32-.09,0-.18-.07-.18-.16,0,0,0-.02,0-.02v-.44c0-.11.08-.2.19-.24.63-.24,1.3-.37,1.98-.38.99,0,2.16.22,2.16,1.75v4.09Zm-1.08-1.12v-1.16c-.41-.09-.82-.14-1.24-.14-.37-.03-.73.09-1.01.32-.16.18-.24.42-.24.66-.02.3.11.59.36.77.36.18.78.2,1.16.05.36-.09.69-.26.98-.5"/>
  <path id="logo-amazonpay-Path_486" data-name="Path 486" class="amazon_cls-3" d="m43.77,16.88c1.24,0,1.58.98,1.58,2.1.07.65-.12,1.3-.52,1.81-.3.28-.71.41-1.11.37-.52-.04-1.03-.23-1.44-.55v-3.2c.43-.33.96-.52,1.5-.53m-1.69,7.45h-.75c-.11,0-.19-.09-.19-.19h0v-7.82c0-.1.09-.19.19-.19h.57c.11,0,.21.08.22.19l.06.41c.52-.48,1.19-.76,1.89-.79,1.85,0,2.46,1.52,2.46,3.11,0,1.7-.93,3.06-2.5,3.06-.65,0-1.28-.24-1.76-.67v2.7c0,.11-.09.19-.19.19h0"/>
</symbol><symbol viewBox="0 0 60.4 42.02" id="icon-logo-american-express">
  
  <rect id="logo-american-express-Rectangle_5" data-name="Rectangle 5" class="cls-3d" x="0" width="60.4" height="42.02" rx="2" ry="2"/>
  <g id="logo-american-express-american-express-seeklogo">
    <path id="logo-american-express-Path_179" data-name="Path 179" class="cls-2d" d="m11.72,32.41v-9.48h10.04l1.08,1.4,1.11-1.4h36.44v8.83c-.62.39-1.32.62-2.06.65h-20.18l-1.21-1.5v1.5h-3.98v-2.55c-.53.27-1.12.39-1.72.36h-1.36v2.2h-6.03l-1.08-1.43-1.09,1.43h-9.98Z"/>
    <path id="logo-american-express-Path_180" data-name="Path 180" class="cls-2d" d="m0,15.78l2.27-5.28h3.92l1.28,2.96v-2.96h4.87l.76,2.14.74-2.14h21.85v1.07c.85-.7,1.93-1.08,3.04-1.07l7.09.02,1.26,2.92v-2.94h4.07l1.12,1.68v-1.68h4.11v9.48h-4.11l-1.07-1.68v1.68h-5.98l-.6-1.5h-1.61l-.59,1.5h-4.06c-.99-.01-1.94-.39-2.66-1.05v1.05h-6.12l-1.22-1.5v1.5H5.6l-.6-1.5h-1.6l-.6,1.5H0v-4.2H0Z"/>
    <path id="logo-american-express-Path_181" data-name="Path 181" class="cls-1d" d="m3.06,11.67L.01,18.77h1.99l.56-1.42h3.28l.56,1.42h2.03l-3.05-7.1h-2.32Zm1.13,1.65l1,2.48h-2l1-2.48Z"/>
    <path id="logo-american-express-Path_182" data-name="Path 182" class="cls-1d" d="m8.64,18.77v-7.1h2.83s1.64,4.59,1.64,4.59l1.6-4.59h2.8v7.1h-1.77v-5.23l-1.89,5.23h-1.55l-1.89-5.23v5.23h-1.77Z"/>
    <path id="logo-american-express-Path_183" data-name="Path 183" class="cls-1d" d="m18.73,18.77v-7.1h5.79v1.59h-4v1.21h3.9v1.5h-3.9v1.26h4v1.54h-5.79Z"/>
    <path id="logo-american-express-Path_184" data-name="Path 184" class="cls-1d" d="m25.55,11.67v7.1h1.78v-2.52h.75l2.13,2.52h2.17l-2.34-2.62c1.12-.11,1.96-1.06,1.95-2.18,0-1.27-1.02-2.3-2.29-2.31-.06,0-.13,0-.19,0h-3.95,0Zm1.78,1.59h2.03c.43-.02.8.31.84.75-.03.43-.39.76-.81.75h-2.06v-1.49Z"/>
    <path id="logo-american-express-Path_185" data-name="Path 185" class="cls-1d" d="m34.52,18.77h-1.81v-7.1h1.81v7.1Z"/>
    <path id="logo-american-express-Path_186" data-name="Path 186" class="cls-1d" d="m38.82,18.77h-.39c-1.89,0-3.04-1.49-3.04-3.52-.19-1.79,1.11-3.39,2.9-3.57.21-.02.42-.02.63,0h1.96v1.68h-2.03c-.94.02-1.69.8-1.67,1.75,0,.06,0,.11.01.17-.12.95.55,1.82,1.5,1.95.14.02.28.02.42,0h.47l-.75,1.55h0Z"/>
    <path id="logo-american-express-Path_187" data-name="Path 187" class="cls-1d" d="m42.68,11.67l-3.05,7.1h1.99l.56-1.42h3.28l.56,1.42h2.03l-3.05-7.1h-2.32Zm1.13,1.65l1,2.48h-2l1-2.48Z"/>
    <path id="logo-american-express-Path_188" data-name="Path 188" class="cls-1d" d="m48.25,18.77v-7.1h2.26l2.88,4.46v-4.46h1.77v7.1h-2.18l-2.95-4.58v4.58h-1.77Z"/>
    <path id="logo-american-express-Path_189" data-name="Path 189" class="cls-1d" d="m12.94,31.2v-7.1h5.79v1.59h-4v1.21h3.9v1.5h-3.9v1.26h4v1.54h-5.79Z"/>
    <path id="logo-american-express-Path_190" data-name="Path 190" class="cls-1d" d="m41.32,31.2v-7.1h5.79v1.59h-4v1.21h3.89v1.5h-3.89v1.26h4v1.54h-5.79Z"/>
    <path id="logo-american-express-Path_191" data-name="Path 191" class="cls-1d" d="m18.95,31.2l2.82-3.51-2.89-3.59h2.24l1.72,2.22,1.72-2.22h2.15l-2.85,3.55,2.82,3.55h-2.23l-1.67-2.19-1.63,2.19h-2.21Z"/>
    <path id="logo-american-express-Path_192" data-name="Path 192" class="cls-1d" d="m26.9,24.1v7.1h1.82v-2.24h1.87c1.58,0,2.78-.84,2.78-2.47.03-1.29-.99-2.36-2.28-2.4-.09,0-.18,0-.27,0h-3.92,0Zm1.82,1.61h1.97c.44-.04.83.28.87.72,0,.03,0,.06,0,.1,0,.45-.37.82-.82.82-.02,0-.04,0-.06,0h-1.96v-1.63Z"/>
    <path id="logo-american-express-Path_193" data-name="Path 193" class="cls-1d" d="m34.15,24.1v7.1h1.77v-2.52h.75l2.13,2.52h2.17l-2.34-2.62c1.12-.11,1.96-1.06,1.95-2.18,0-1.27-1.02-2.3-2.29-2.31-.06,0-.13,0-.19,0h-3.95Zm1.77,1.59h2.03c.43-.02.8.31.84.75-.03.43-.39.76-.82.75h-2.06v-1.49h0Z"/>
    <path id="logo-american-express-Path_194" data-name="Path 194" class="cls-1d" d="m47.93,31.2v-1.54h3.56c.53,0,.75-.28.75-.6s-.23-.6-.75-.6h-1.6c-1.09.11-2.06-.69-2.17-1.78-.01-.11-.01-.23,0-.34,0-1.14.71-2.24,2.79-2.24h3.46l-.75,1.6h-2.99c-.57,0-.75.3-.75.59,0,.34.28.62.62.62.01,0,.02,0,.04,0h1.68c1.06-.16,2.05.58,2.21,1.64.02.13.03.26.02.4.08,1.17-.81,2.19-1.98,2.26-.11,0-.22,0-.33,0h-3.79Z"/>
    <path id="logo-american-express-Path_195" data-name="Path 195" class="cls-1d" d="m54.45,31.2v-1.54h3.4c.53,0,.75-.28.75-.6s-.23-.6-.75-.6h-1.46c-1.09.11-2.06-.69-2.17-1.78-.01-.11-.01-.23,0-.34,0-1.14.71-2.24,2.79-2.24h3.39l-.75,1.6h-2.92c-.57,0-.75.3-.75.59,0,.34.28.62.62.62.01,0,.02,0,.04,0h1.53c1.06-.16,2.05.58,2.21,1.64.02.13.03.26.02.4.08,1.17-.81,2.19-1.98,2.26-.11,0-.22,0-.33,0h-3.63Z"/>
  </g>
</symbol><symbol viewBox="0 0 60.4 42" id="icon-logo-discover">
<style type="text/css">
	.st0r{fill:#FFFFFF;}
	.st1r{fill:#FF6F00;}
</style>
<g>
	<path id="logo-discover-Rectangle_54" class="st0r" d="M2,0h56.4c1.1,0,2,0.9,2,2v38c0,1.1-0.9,2-2,2H2c-1.1,0-2-0.9-2-2V2C0,0.9,0.9,0,2,0z"/>
	<g>
		<path d="M52.5,21.6c1.2-0.2,1.8-1,1.8-2.3c0-2.8-3-2.4-5.2-2.4l0,8.1h1.6v-3.2H51l2.2,3.2h1.9L52.5,21.6z M51.2,20.6h-0.5v-2.4
			h0.5c1,0,1.5,0.4,1.5,1.2C52.8,20.2,52.2,20.6,51.2,20.6z"/>
		<polygon points="43.7,16.9 48.1,16.9 48.1,18.3 45.2,18.3 45.2,20.1 48,20.1 48,21.4 45.2,21.4 45.2,23.6 48.1,23.6 48.1,25 
			43.7,25 		"/>
		<polygon points="36.9,16.9 39.1,22.3 41.3,16.9 43,16.9 39.5,25.2 38.6,25.2 35.2,16.9 		"/>
		<path class="st1r" d="M31.4,16.6c2.4,0,4.4,2,4.4,4.4c0,2.4-2,4.4-4.4,4.4c-2.4,0-4.4-2-4.4-4.4C27,18.6,29,16.6,31.4,16.6z"/>
		<path d="M26.6,17.2v1.9c-2-2-4.6-0.5-4.6,1.9c0,2.5,2.7,3.8,4.6,1.9v1.9c-2.9,1.4-6.2-0.6-6.2-3.8C20.3,17.9,23.6,15.7,26.6,17.2z
			"/>
		<path d="M17,23.7c1.1,0,2.2-1.5-0.3-2.4c-1.5-0.5-2-1.1-2-2.2c0-2.3,3-3.1,4.9-1.4l-0.8,1.1c-1-1.1-2.4-0.6-2.4,0.2
			c0,0.4,0.3,0.7,1.2,1c1.8,0.6,2.3,1.2,2.3,2.5c0,2.9-3.8,3.7-5.6,1.1l1-1C15.7,23.4,16.3,23.7,17,23.7L17,23.7z"/>
		<rect x="12.1" y="16.9" width="1.6" height="8.1"/>
		<path d="M7,16.9H4.7V25H7c3,0,4.3-2.2,4.3-4C11.4,18.6,9.6,16.9,7,16.9z M8.9,23c-0.5,0.4-1.1,0.6-2.2,0.6H6.3v-5.3h0.4
			c1,0,1.6,0.2,2.2,0.6c0.6,0.5,0.9,1.2,0.9,2C9.7,21.7,9.4,22.5,8.9,23z"/>
	</g>
</g>
</symbol><symbol viewBox="0 0 60.4 42.02" id="icon-logo-mastercard">
  
  <g id="logo-mastercard-mastercard.svg">
    <rect id="logo-mastercard-Rectangle_4" data-name="Rectangle 4" class="cls-5" x="0" width="60.4" height="42.02" rx="2" ry="2"/>
  </g>
  <g id="logo-mastercard-master-card">
    <path id="logo-mastercard-Path_224" data-name="Path 224" class="cls-5" d="m3.84,4.38v33.7h52.89V4.38H3.84Z"/>
    <path id="logo-mastercard-Path_225" data-name="Path 225" class="cls-4" d="m25.38,21.28c.13-8.14,6.84-14.63,14.98-14.5,8.14.13,14.63,6.84,14.5,14.98-.13,8.05-6.69,14.5-14.74,14.5-8.21-.07-14.81-6.78-14.74-14.99Z"/>
    <path id="logo-mastercard-Path_226" data-name="Path 226" class="cls-6" d="m30.25,10.12c-.46.42-.9.87-1.29,1.36h2.62c.48.52.89,1.1,1.23,1.73h-5.13s-.5.79-.83,1.47h6.78c.31.57.56,1.18.75,1.8h-8.24c-.16.46-.29.94-.4,1.42h9.02c.59,2.71.46,5.54-.39,8.19h-8.2c.15.52.34,1.02.57,1.5h7.04c-.28.6-.7,1.36-.93,1.74h-5.16c.3.48.63.94.99,1.38h3.18c-.48.62-1.02,1.19-1.61,1.7h-.02.03c-2.69,2.48-6.21,3.86-9.86,3.86-8.28-.14-14.88-6.95-14.74-15.23.13-8.09,6.66-14.61,14.74-14.74,3.65,0,7.16,1.37,9.84,3.83h0Z"/>
    <path id="logo-mastercard-Path_227" data-name="Path 227" class="cls-7" d="m22.98,19.2l-.24,1.33-1.29-.03s-.65.17-.65.44.48.61,1.19.92.75,1.15.68,1.73c-.07.58-.17,1.78-2.24,1.84-.62.04-1.24-.03-1.84-.2l.27-1.36s1.53.41,1.87.17.75-.65.1-.92-1.7-.71-1.7-1.8c-.09-.84.36-1.65,1.12-2.01.88-.27,1.82-.31,2.72-.1h0Z"/>
    <path id="logo-mastercard-Path_228" data-name="Path 228" class="cls-7" d="m12.76,25.25h-1.5l.87-5.17-1.86,5.14h-1.04l-.25-5.34-.91,5.37h-1.42l1.34-7.89h1.72l.6,4.54,2.01-4.54h1.77l-1.34,7.89Z"/>
    <path id="logo-mastercard-Path_229" data-name="Path 229" class="cls-7" d="m24.32,25.38c-.38.03-.75-.08-1.05-.32-.23-.27-.34-.63-.32-.98,0-.1.01-.21.03-.31.01-.11.03-.24.05-.38l.9-5.05h1.41l-.2.99h1.31l-.22,1.24h-1.32l-.36,2.15c-.02.14-.05.28-.07.44-.02.13-.03.25-.03.38-.02.16.02.32.13.44.12.09.26.14.41.13.1,0,.19-.02.28-.05.1-.03.2-.08.29-.13h.12l-.22,1.26c-.16.06-.33.1-.5.13-.21.04-.42.05-.63.05h0Z"/>
    <path id="logo-mastercard-Path_230" data-name="Path 230" class="cls-7" d="m34.44,20.99c-.34-.25-.81-.17-1.06.17-.03.04-.06.09-.08.13l-.68,3.98h-1.41l1.01-5.94h1.41l-.03.48c.34-.36.83-.54,1.32-.47-.24.53-.41,1.08-.5,1.65h0Z"/>
    <path id="logo-mastercard-Path_231" data-name="Path 231" class="cls-7" d="m37.1,25.41c-.7.04-1.37-.26-1.82-.79-.47-.66-.7-1.45-.64-2.26,0-.71.09-1.42.28-2.1.17-.58.43-1.13.78-1.63.31-.43.71-.78,1.17-1.04.43-.25.92-.38,1.42-.38.38,0,.76.06,1.12.17.17.06.49.21.49.21l-.33,1.87c-.14-.19-.31-.35-.49-.49-.26-.17-.56-.25-.86-.25-.62.02-1.17.39-1.44.95-.41.74-.61,1.57-.57,2.42-.04.48.07.96.31,1.38.22.28.56.43.91.41.36,0,.71-.1,1.01-.29.15-.1.3-.2.44-.32l-.33,1.79s-.17.08-.25.11c-.2.08-.37.13-.52.17-.23.04-.46.07-.69.06h0Z"/>
    <path id="logo-mastercard-Path_232" data-name="Path 232" class="cls-7" d="m16.23,25.07c-.05.04-.11.08-.16.11-.13.07-.27.14-.41.19-.18.04-.36.06-.54.06-.34,0-.67-.14-.89-.41-.24-.31-.37-.7-.35-1.09-.01-.41.07-.82.24-1.2.16-.32.42-.59.73-.77.33-.2.69-.33,1.07-.4l.29-.05c.35-.07.71-.11,1.07-.13,0-.04,0-.07.01-.11.01-.05.01-.1.01-.15.02-.21-.08-.42-.26-.54-.24-.11-.51-.16-.77-.14h-.07c-.24.02-.48.07-.7.16-.21.08-.42.17-.63.27h-.13l.21-1.41c.25-.08.5-.15.76-.19.16-.04.32-.07.49-.08.18-.03.36-.04.54-.03.53-.04,1.06.09,1.52.36.34.28.52.7.48,1.14,0,.09,0,.18-.01.27-.01.11-.02.2-.03.3l-.69,4.05h-1.39l.1-.63c-.08.08-.2.17-.32.29-.07.05-.13.09-.19.14h0Zm0-2.47c-.13.03-.26.07-.39.13-.15.07-.28.19-.36.33-.1.17-.14.37-.13.57-.02.16.04.32.16.43.15.09.32.14.49.13.08,0,.15-.02.22-.05.08-.02.15-.05.22-.08.16-.1.31-.21.44-.33l.21-1.26c-.24.03-.49.06-.7.11-.06,0-.12.01-.18.03h0Z"/>
    <path id="logo-mastercard-Path_233" data-name="Path 233" class="cls-7" d="m28.42,20.36c-.2.03-.37.13-.5.28-.22.25-.37.56-.45.88h1.9c0-.06.01-.11.01-.17,0-.05.01-.11.01-.16.01-.23-.06-.46-.2-.65-.14-.15-.34-.23-.55-.22-.07,0-.15.01-.22.03Zm0,3.73h.21c.3,0,.6-.07.87-.21.25-.13.49-.29.71-.47h.16l-.27,1.53c-.27.16-.56.28-.86.36-.27.08-.55.12-.83.13h-.13c-.65.04-1.29-.21-1.74-.68-.43-.52-.65-1.18-.61-1.85,0-.5.06-1,.2-1.49.12-.43.31-.84.57-1.2.24-.33.55-.6.9-.79.25-.13.52-.22.8-.27.13-.01.26-.02.39-.01.55-.04,1.09.15,1.48.54.36.45.53,1.01.49,1.58,0,.24-.01.48-.05.71-.03.22-.08.46-.14.68h-3.26v.13c-.02.35.1.69.33.96.2.21.48.34.77.35h0Z"/>
    <path id="logo-mastercard-Path_234" data-name="Path 234" class="cls-7" d="m41.62,25.07c-.05.04-.11.08-.18.11-.13.07-.27.14-.41.19-.17.04-.35.06-.53.06-.35,0-.68-.14-.9-.41-.24-.31-.36-.7-.34-1.09-.01-.41.07-.82.25-1.2.16-.32.41-.59.72-.77.33-.2.7-.34,1.08-.4.1-.02.19-.03.29-.05.35-.07.7-.11,1.06-.13.01-.03.01-.06.02-.11s.01-.1.01-.16c.01-.21-.08-.42-.26-.54-.24-.11-.51-.16-.77-.14h-.06c-.24.02-.48.07-.7.16-.21.08-.42.17-.63.27h-.13l.2-1.41c.25-.09.51-.15.77-.19.16-.04.32-.07.49-.08.18-.03.36-.04.54-.03.53-.04,1.06.09,1.51.36.33.28.51.7.48,1.14,0,.09,0,.18-.01.27-.01.11-.02.2-.03.3l-.68,4.05h-1.4l.1-.63c-.09.08-.2.17-.33.29l-.17.14h0Zm0-2.47c-.14.03-.27.07-.4.13-.15.07-.27.19-.36.33-.09.18-.14.37-.13.57-.02.16.05.32.18.43.14.09.31.14.48.13.08,0,.16-.02.23-.05.07-.02.14-.05.21-.08.16-.09.31-.21.44-.33l.22-1.26c-.26.03-.49.06-.71.11-.05,0-.11.01-.16.03h0Z"/>
    <path id="logo-mastercard-Path_235" data-name="Path 235" class="cls-7" d="m47.57,20.99c-.34-.25-.81-.17-1.06.17-.03.04-.06.09-.08.13l-.67,3.98h-1.41l1.01-5.94h1.41l-.03.48c.34-.36.83-.54,1.32-.47-.24.53-.41,1.08-.5,1.65h0Z"/>
    <path id="logo-mastercard-Path_236" data-name="Path 236" class="cls-3" d="m50.34,20.58c-.07.03-.14.08-.2.13-.19.14-.35.33-.47.54-.12.26-.21.53-.26.81-.07.31-.1.62-.1.93-.02.27.05.54.19.78.13.17.34.27.56.25.1,0,.19-.02.28-.06.05-.02.09-.04.13-.06.14-.08.28-.17.4-.27l.5-2.92c-.09-.06-.19-.1-.3-.13-.1-.04-.21-.06-.31-.06-.14,0-.28.03-.41.08h0Zm0,4.36c-.11.1-.22.19-.35.27-.11.06-.22.12-.34.16-.13.03-.27.05-.41.05-.42,0-.8-.2-1.03-.56-.27-.49-.4-1.04-.37-1.6,0-.54.06-1.08.2-1.6.12-.46.3-.9.55-1.31.21-.35.48-.65.81-.89.27-.2.6-.31.93-.33h.05c.21,0,.43.03.63.09.2.08.38.18.55.32l.31-2.07h1.41l-1.29,7.78h-1.41l.1-.62c-.13.11-.25.2-.35.3h0Z"/>
    <path id="logo-mastercard-Path_237" data-name="Path 237" class="cls-1" d="m23.26,18.99l-.24,1.33-1.29-.03s-.65.17-.65.44.48.61,1.19.92.75,1.16.68,1.73-.17,1.78-2.24,1.84c-.62.04-1.24-.03-1.84-.2l.27-1.36s1.53.41,1.87.17.75-.65.1-.92-1.7-.72-1.7-1.8c-.09-.84.36-1.65,1.12-2.01.88-.27,1.82-.31,2.72-.1h0Z"/>
    <path id="logo-mastercard-Path_238" data-name="Path 238" class="cls-1" d="m13.04,25.04h-1.5l.87-5.17-1.86,5.14h-1.03l-.25-5.34-.91,5.37h-1.42l1.34-7.89h1.72l.6,4.54,2.01-4.54h1.77l-1.34,7.89Z"/>
    <path id="logo-mastercard-Path_239" data-name="Path 239" class="cls-1" d="m24.6,25.16c-.38.03-.75-.08-1.05-.32-.23-.27-.34-.62-.32-.98,0-.11,0-.21.02-.32.01-.11.03-.24.05-.38l.9-5.05h1.41l-.2.99h1.32l-.22,1.25h-1.31l-.36,2.15c-.02.14-.05.28-.07.44-.02.13-.03.25-.03.38-.02.16.02.32.13.44.12.09.26.14.41.13.09,0,.19-.02.28-.05.1-.03.2-.08.29-.13h.12l-.22,1.26c-.16.06-.33.1-.5.12-.21.03-.42.05-.63.05h0Z"/>
    <path id="logo-mastercard-Path_240" data-name="Path 240" class="cls-1" d="m34.72,20.77c-.34-.25-.81-.17-1.06.17-.03.04-.06.09-.08.13l-.68,3.98h-1.41l1.01-5.94h1.41l-.03.48c.34-.37.83-.54,1.32-.48-.24.53-.4,1.08-.49,1.66h0Z"/>
    <path id="logo-mastercard-Path_241" data-name="Path 241" class="cls-1" d="m37.38,25.2c-.7.04-1.37-.26-1.82-.79-.47-.66-.7-1.45-.64-2.26,0-.71.09-1.42.28-2.1.17-.58.43-1.13.78-1.63.31-.43.71-.78,1.17-1.04.43-.25.92-.38,1.42-.38.38,0,.76.06,1.12.17.17.06.49.21.49.21l-.33,1.87c-.14-.19-.31-.35-.49-.49-.26-.17-.56-.25-.86-.25-.62.02-1.17.39-1.43.95-.41.74-.61,1.58-.57,2.42-.04.48.07.96.32,1.38.22.28.56.43.91.41.36,0,.71-.1,1.01-.28.15-.1.3-.21.44-.32l-.33,1.79s-.17.08-.25.11c-.2.08-.37.13-.52.17-.23.04-.46.07-.69.07h0Z"/>
    <path id="logo-mastercard-Path_242" data-name="Path 242" class="cls-1" d="m16.51,24.85c-.05.04-.11.08-.16.11-.13.07-.27.14-.41.19-.18.04-.36.06-.54.06-.34,0-.67-.14-.89-.41-.24-.31-.37-.7-.35-1.09-.01-.41.07-.82.25-1.2.16-.32.42-.59.73-.78.33-.2.69-.33,1.07-.4l.29-.05c.35-.07.71-.11,1.07-.13,0-.04,0-.07.01-.11.01-.05.01-.11.01-.16.02-.21-.08-.42-.26-.54-.24-.11-.51-.16-.77-.14h-.07c-.24.02-.48.07-.7.16-.21.08-.43.17-.63.27h-.13l.21-1.41c.25-.08.5-.15.76-.19.16-.04.32-.07.49-.08.18-.03.36-.04.54-.03.53-.04,1.06.09,1.51.36.34.28.52.7.48,1.14,0,.09,0,.18-.01.27-.01.11-.02.21-.03.3l-.68,4.05h-1.4l.1-.63c-.08.08-.2.17-.31.29-.07.04-.13.09-.19.14h0Zm0-2.47c-.13.03-.26.07-.39.13-.15.07-.28.19-.36.33-.1.17-.14.37-.13.57-.02.16.04.32.16.43.15.09.32.14.49.13.08,0,.15-.02.22-.05.08-.02.15-.05.22-.08.16-.1.3-.21.44-.33l.21-1.26c-.24.03-.49.06-.7.11-.06,0-.12.01-.18.03h0Z"/>
    <path id="logo-mastercard-Path_243" data-name="Path 243" class="cls-1" d="m28.7,20.14c-.19.03-.37.14-.5.28-.22.26-.37.56-.45.89h1.9c0-.06.01-.11.01-.17,0-.05.01-.11.01-.16.01-.23-.06-.46-.2-.65-.14-.15-.34-.23-.55-.22-.07,0-.15.01-.22.03h0Zm0,3.73h.21c.3,0,.6-.07.88-.21.25-.13.49-.29.71-.47h.16l-.27,1.53c-.27.16-.56.28-.86.37-.27.07-.55.12-.83.13h-.13c-.65.04-1.29-.21-1.74-.68-.43-.52-.65-1.18-.61-1.85,0-.5.06-1,.2-1.49.12-.43.31-.84.57-1.2.24-.32.55-.59.9-.79.25-.13.52-.22.8-.27.13-.01.26-.02.39-.01.55-.04,1.09.15,1.48.54.36.45.53,1.01.49,1.58,0,.24-.01.48-.05.71-.03.22-.08.46-.14.68h-3.26v.12c-.02.35.1.7.33.96.2.21.48.34.77.35h0Z"/>
    <path id="logo-mastercard-Path_244" data-name="Path 244" class="cls-1" d="m41.9,24.85c-.05.04-.11.08-.17.11-.13.07-.27.14-.41.19-.17.04-.35.06-.53.06-.35,0-.68-.14-.9-.41-.24-.31-.36-.7-.34-1.09-.01-.41.07-.82.25-1.2.16-.32.41-.59.72-.78.33-.2.7-.33,1.08-.4.09-.02.19-.03.29-.05.35-.07.71-.11,1.06-.13,0-.04.02-.07.02-.11,0-.05.01-.1.01-.16.02-.21-.08-.42-.26-.54-.24-.11-.5-.16-.77-.14h-.07c-.24.02-.48.07-.7.16-.22.08-.43.17-.63.27h-.12l.2-1.41c.25-.09.51-.15.77-.19.16-.04.32-.07.49-.08.18-.03.36-.04.54-.03.53-.04,1.06.09,1.52.36.33.28.51.7.48,1.14,0,.09,0,.18-.01.27-.01.11-.02.21-.04.3l-.69,4.05h-1.4l.11-.63c-.1.08-.2.17-.33.29l-.18.14h0Zm0-2.47c-.14.03-.27.07-.4.13-.15.07-.28.19-.36.33-.09.17-.14.37-.13.57-.02.16.05.32.18.43.14.09.31.14.48.13.08,0,.16-.02.23-.05.07-.02.14-.04.21-.08.16-.1.31-.21.44-.33l.22-1.26c-.26.03-.49.06-.71.11-.06,0-.11.01-.16.03h0Z"/>
    <path id="logo-mastercard-Path_245" data-name="Path 245" class="cls-1" d="m47.86,20.77c-.34-.25-.81-.17-1.06.17-.03.04-.06.09-.08.13l-.68,3.98h-1.41l1.01-5.94h1.41l-.03.48c.34-.37.83-.55,1.33-.48-.24.53-.41,1.08-.49,1.66h0Z"/>
    <path id="logo-mastercard-Path_246" data-name="Path 246" class="cls-2" d="m50.62,20.36c-.07.03-.14.08-.2.13-.19.14-.35.33-.47.54-.12.26-.21.53-.26.81-.07.31-.1.62-.1.93-.02.27.04.54.19.77.13.17.34.27.56.25.1,0,.19-.02.28-.06.05-.01.09-.04.13-.06.14-.08.28-.17.4-.27l.5-2.92c-.09-.06-.19-.1-.3-.13-.1-.04-.21-.06-.32-.06-.14,0-.28.03-.41.08h0Zm0,4.36c-.11.1-.23.19-.35.27-.11.06-.22.12-.34.16-.13.03-.27.05-.41.05-.42,0-.8-.2-1.03-.56-.27-.49-.4-1.04-.37-1.6,0-.54.06-1.08.2-1.6.12-.46.3-.9.55-1.31.21-.35.49-.65.82-.88.27-.2.6-.31.93-.33h.05c.21,0,.43.03.63.1.2.08.38.18.55.32l.31-2.07h1.41l-1.3,7.77h-1.41l.1-.62c-.13.11-.24.21-.35.3h0Z"/>
  </g>
</symbol><symbol viewBox="0 0 60.4 42.02" id="icon-logo-paypal">
  
  <rect id="logo-paypal-Rectangle_52" data-name="Rectangle 52" class="__cls-3" width="60.4" height="42.02" rx="2" ry="2"/>
  <g id="logo-paypal-Group_115" data-name="Group 115">
    <path id="logo-paypal-Path_487" data-name="Path 487" class="__cls-1" d="m9.56,13.53c1.83,0,3.52.99,3.29,3.47-.27,2.94-1.86,4.58-4.35,4.58h-2.17c-.31,0-.46.26-.55.78l-.42,2.68c-.06.4-.27.6-.58.6h-2.02c-.32,0-.44-.21-.36-.67l1.67-10.72c.08-.52.28-.72.64-.72h4.84Zm-3.3,5.74h1.65c1.03-.04,1.72-.75,1.78-2.04.07-.68-.43-1.29-1.12-1.36-.08,0-.16,0-.23,0h-1.55s-.54,3.4-.54,3.4Zm12.1,5.55c.19-.17.37-.26.35-.05l-.07.5c-.03.26.07.4.31.4h1.8c.3,0,.45-.12.52-.59l1.11-6.96c.06-.35-.03-.52-.29-.52h-1.98c-.18,0-.26.1-.31.37l-.07.43c-.04.22-.14.26-.24.04-.34-.79-1.19-1.15-2.39-1.13-2.66.05-4.8,2.2-4.84,4.86-.21,1.83,1.1,3.49,2.93,3.7.13.01.25.02.38.02,1.04.07,2.06-.33,2.79-1.08m-1.5-1.07c-1,.04-1.84-.73-1.88-1.72,0-.13,0-.27.03-.4.22-1.21,1.26-2.09,2.48-2.12,1-.04,1.84.73,1.88,1.73,0,.13,0,.26-.03.39-.22,1.21-1.26,2.09-2.48,2.12m9.05-6.17h-1.82c-.38,0-.53.28-.41.63l2.26,6.63-2.23,3.15c-.19.26-.04.5.22.5h2.05c.24.03.48-.09.61-.3l6.96-9.99c.22-.31.11-.63-.24-.63h-1.94c-.33,0-.47.13-.66.41l-2.9,4.21-1.29-4.22c-.08-.27-.34-.44-.62-.39"/>
    <path id="logo-paypal-Path_488" data-name="Path 488" class="__cls-2" d="m40.79,13.53c1.83,0,3.52.99,3.29,3.47-.27,2.94-1.86,4.58-4.35,4.58h-2.17c-.31,0-.46.26-.55.78l-.42,2.68c-.06.4-.27.6-.58.6h-2.02c-.32,0-.43-.21-.36-.67l1.67-10.72c.08-.52.28-.72.64-.72h4.85Zm-3.3,5.74h1.65c1.03-.04,1.72-.75,1.79-2.04.07-.68-.43-1.29-1.12-1.36-.08,0-.15,0-.23,0h-1.55s-.54,3.4-.54,3.4Zm12.09,5.55c.18-.17.37-.26.35-.05l-.07.5c-.03.26.07.4.31.4h1.8c.3,0,.45-.12.52-.59l1.11-6.95c.06-.35-.03-.52-.29-.52h-1.98c-.18,0-.26.1-.31.37l-.07.43c-.04.22-.14.26-.24.04-.34-.79-1.19-1.15-2.39-1.13-2.66.06-4.8,2.2-4.84,4.86-.21,1.83,1.1,3.49,2.93,3.7.13.01.25.02.38.02,1.04.07,2.06-.33,2.79-1.08m-1.5-1.07c-1,.04-1.84-.73-1.88-1.73,0-.13,0-.27.03-.4.22-1.21,1.26-2.09,2.48-2.12,1-.04,1.84.74,1.88,1.73,0,.13,0,.26-.03.39-.22,1.21-1.26,2.09-2.48,2.12m8.29,1.93h-2.07c-.14,0-.25-.1-.26-.23,0-.02,0-.04,0-.06l1.82-11.55c.03-.16.18-.28.35-.29h2.07c.14,0,.25.1.26.23,0,.02,0,.04,0,.06l-1.82,11.55c-.03.16-.18.28-.35.29"/>
  </g>
</symbol><symbol viewBox="0 0 26 26" id="icon-logo-small"><path d="M17.647 12.125h-3.323c-.11 0-.197.087-.197.194v2.327c0 .107.087.193.197.193h3.323c.95 0 1.542-.524 1.542-1.357 0-.795-.594-1.358-1.543-1.358zm-2.62-2.423h3.233c2.51 0 3.988 1.57 3.988 3.296 0 1.35-.915 2.345-1.885 2.78-.155.07-.15.283.01.346 1.128.443 1.94 1.623 1.94 3 0 1.96-1.305 3.512-3.837 3.512h-6.96c-.11 0-.197-.087-.197-.194v-9.03L.237 24.49c-.51.508-.148 1.378.57 1.378h24.254c.446 0 .808-.362.808-.808V.81c0-.72-.87-1.08-1.38-.572L15.03 9.702zm-.703 7.562c-.11 0-.197.087-.197.194v2.56c0 .106.087.193.197.193h3.44c1.05 0 1.682-.542 1.682-1.472 0-.815-.593-1.474-1.68-1.474h-3.442z" fill="#000" fill-rule="evenodd"/></symbol><symbol viewBox="0 0 60.4 42.02" id="icon-logo-visa">
  
  <g id="logo-visa-Group_49" data-name="Group 49">
    <rect id="logo-visa-Rectangle_3" data-name="Rectangle 3" class="cls-3z" width="60.4" height="42.02" rx="2" ry="2"/>
    <g id="logo-visa-Group_28" data-name="Group 28">
      <g id="logo-visa-Group_48" data-name="Group 48">
        <path id="logo-visa-Path_144" data-name="Path 144" class="cls-1z" d="m16.08,21.45l-1.25-5.94c-.2-.71-.88-1.18-1.62-1.09h-5.75l-.05.27c4.48,1.07,7.44,3.66,8.67,6.76Z"/>
        <path id="logo-visa-Path_145" data-name="Path 145" class="cls-2z" d="m29.4,14.54h-3.71l-2.32,13.44h3.71l2.33-13.44Z"/>
        <path id="logo-visa-Path_146" data-name="Path 146" class="cls-2z" d="m18.34,27.96l5.84-13.42h-3.93l-3.63,9.17-.39-1.39c-1.18-2.28-2.96-4.21-5.14-5.57l3.32,11.21h3.93Z"/>
        <path id="logo-visa-Path_147" data-name="Path 147" class="cls-2z" d="m39.99,23.58c.01-1.53-.98-2.69-3.12-3.65-1.3-.62-2.09-1.04-2.08-1.67,0-.56.67-1.15,2.12-1.15.95-.02,1.9.15,2.78.52l.34.15.5-2.91c-1.07-.38-2.19-.57-3.33-.56-3.67,0-6.25,1.82-6.27,4.43-.02,1.93,1.85,3.01,3.25,3.65,1.44.66,1.93,1.08,1.92,1.67-.01.9-1.15,1.31-2.22,1.31-1.2.04-2.4-.2-3.49-.7l-.48-.21-.52,3.01c1.32.48,2.72.72,4.13.71,3.9,0,6.44-1.8,6.47-4.6Z"/>
        <path id="logo-visa-Path_148" data-name="Path 148" class="cls-2z" d="m44.4,25.96h4.75c.11.47.45,2.02.45,2.02h3.44l-3-13.43h-2.86c-.83-.11-1.62.35-1.95,1.12l-5.51,12.32h3.9s.63-1.66.78-2.02Zm2.54-6.51s.31-.78.49-1.28l.25,1.16s.71,3.21.86,3.88h-3.08c.31-.77,1.48-3.76,1.48-3.76h0Z"/>
      </g>
    </g>
  </g>
</symbol><symbol viewBox="0 0 34 32" id="icon-pinterest">
<path d="M1.356 15.647c0 6.24 3.781 11.6 9.192 13.957-0.043-1.064-0.008-2.341 0.267-3.499 0.295-1.237 1.976-8.303 1.976-8.303s-0.491-0.973-0.491-2.411c0-2.258 1.319-3.945 2.962-3.945 1.397 0 2.071 1.041 2.071 2.288 0 1.393-0.895 3.477-1.356 5.408-0.385 1.616 0.817 2.935 2.424 2.935 2.909 0 4.869-3.708 4.869-8.101 0-3.34-2.267-5.839-6.39-5.839-4.658 0-7.56 3.447-7.56 7.297 0 1.328 0.394 2.264 1.012 2.989 0.284 0.333 0.324 0.467 0.221 0.849-0.074 0.28-0.243 0.955-0.313 1.223-0.102 0.386-0.417 0.524-0.769 0.381-2.145-0.869-3.145-3.201-3.145-5.822 0-4.329 3.679-9.519 10.975-9.519 5.863 0 9.721 4.21 9.721 8.729 0 5.978-3.349 10.443-8.285 10.443-1.658 0-3.217-0.889-3.751-1.899 0 0-0.892 3.511-1.080 4.189-0.325 1.175-0.963 2.349-1.546 3.264 1.381 0.405 2.84 0.625 4.352 0.625 8.48 0 15.355-6.822 15.355-15.238s-6.876-15.238-15.355-15.238c-8.48 0-15.356 6.822-15.356 15.238z"/>
</symbol><symbol viewBox="0 0 26 28" id="icon-print">
<path d="M0 21.5v-6.5q0-1.234 0.883-2.117t2.117-0.883h1v-8.5q0-0.625 0.438-1.062t1.062-0.438h10.5q0.625 0 1.375 0.313t1.188 0.75l2.375 2.375q0.438 0.438 0.75 1.188t0.313 1.375v4h1q1.234 0 2.117 0.883t0.883 2.117v6.5q0 0.203-0.148 0.352t-0.352 0.148h-3.5v2.5q0 0.625-0.438 1.062t-1.062 0.438h-15q-0.625 0-1.062-0.438t-0.438-1.062v-2.5h-3.5q-0.203 0-0.352-0.148t-0.148-0.352zM6 24h14v-4h-14v4zM6 14h14v-6h-2.5q-0.625 0-1.062-0.438t-0.438-1.062v-2.5h-10v10zM22 15q0 0.406 0.297 0.703t0.703 0.297 0.703-0.297 0.297-0.703-0.297-0.703-0.703-0.297-0.703 0.297-0.297 0.703z"/>
</symbol><symbol viewBox="0 0 24 24" id="icon-remove"><path d="M19 13H5v-2h14v2z"/></symbol><symbol viewBox="0 0 32 32" id="icon-rss">
    <path d="M-0.465347858,2.01048219 C-0.465347858,2.01048219 28.7009958,0.574406533 31,31.3201126 L25.1092027,31.3201126 C25.1092027,31.3201126 26.2597741,8.90749482 -0.465347858,6.89506416 L-0.465347858,2.01048219 L-0.465347858,2.01048219 Z M-0.465347858,12.2127144 C-0.465347858,12.2127144 16.6328276,11.6363594 19.9369779,31.3201126 L14.0472499,31.3201126 C14.0472499,31.3201126 13.3297467,19.6839434 -0.465347858,17.0940884 L-0.465347858,12.2127144 L-0.465347858,12.2127144 Z M2.73614917,25.0304648 C4.79776783,25.0304648 6.47229834,26.7007181 6.47229834,28.766614 C6.47229834,30.8282326 4.79776783,32.5016938 2.73614917,32.5016938 C0.6723919,32.5016938 -1,30.8293019 -1,28.766614 C-1,26.7017874 0.6723919,25.0304648 2.73614917,25.0304648 Z" id="rss-Shape"/>
</symbol><symbol viewBox="0 0 20 20.004" id="icon-search">
  <path id="search-magnifying-glass-solid_1_" data-name="magnifying-glass-solid (1)" d="M16.251,8.125a8.105,8.105,0,0,1-1.563,4.793l4.946,4.949a1.251,1.251,0,0,1-1.77,1.77l-4.946-4.949a8.127,8.127,0,1,1,3.332-6.563ZM8.125,13.751A5.625,5.625,0,1,0,2.5,8.125,5.625,5.625,0,0,0,8.125,13.751Z" fill="#fff"/>
</symbol><symbol viewBox="0 -960 960 960" id="icon-shopping-cart"><path d="M286.788-81Q257-81 236-102.212q-21-21.213-21-51Q215-183 236.212-204q21.213-21 51-21Q317-225 338-203.788q21 21.213 21 51Q359-123 337.788-102q-21.213 21-51 21Zm400 0Q657-81 636-102.212q-21-21.213-21-51Q615-183 636.212-204q21.213-21 51-21Q717-225 738-203.788q21 21.213 21 51Q759-123 737.788-102q-21.213 21-51 21ZM235-741l110 228h288l125-228H235Zm-30-60h589.074q22.964 0 34.945 21Q841-759 829-738L694-495q-11 19-28.559 30.5Q647.881-453 627-453H324l-56 104h491v60H277q-42 0-60.5-28t.5-63l64-118-152-322H51v-60h117l37 79Zm140 288h288-288Z"/></symbol><symbol viewBox="0 0 26 28" id="icon-star">
<path d="M0 10.109q0-0.578 0.875-0.719l7.844-1.141 3.516-7.109q0.297-0.641 0.766-0.641t0.766 0.641l3.516 7.109 7.844 1.141q0.875 0.141 0.875 0.719 0 0.344-0.406 0.75l-5.672 5.531 1.344 7.812q0.016 0.109 0.016 0.313 0 0.328-0.164 0.555t-0.477 0.227q-0.297 0-0.625-0.187l-7.016-3.687-7.016 3.687q-0.344 0.187-0.625 0.187-0.328 0-0.492-0.227t-0.164-0.555q0-0.094 0.031-0.313l1.344-7.812-5.688-5.531q-0.391-0.422-0.391-0.75z"/>
</symbol><symbol viewBox="0 0 32 32" id="icon-stumbleupon">
    
    <mask id="stumbleupon-mask-2">
        <use href="#path-1"/>
    </mask>
    <path d="M31.9250667,16.0373333 C31.9250667,24.8533333 24.7784,32 15.9624,32 C7.14666667,32 0,24.8533333 0,16.0373333 C0,7.2216 7.14666667,0.0749333333 15.9624,0.0749333333 C24.7784,0.0749333333 31.9250667,7.2216 31.9250667,16.0373333 Z M21.9205547,16.3600826 L21.9205547,18.9857015 C21.9205547,19.5214765 21.494073,19.9558236 20.968,19.9558236 C20.441927,19.9558236 20.0154453,19.5214765 20.0154453,18.9857015 L20.0154453,16.4101275 L18.1823358,16.9675798 L16.9525547,16.3839008 L16.9525547,18.9383327 C16.9717372,21.1844666 18.7659562,23 20.976146,23 C23.1984234,23 25,21.1651979 25,18.9019364 L25,16.3600826 L21.9205547,16.3600826 Z M16.9525547,14.2429415 L18.1823358,14.8266205 L20.0154453,14.2691683 L20.0154453,12.9736203 C19.9505401,10.7684323 18.1810219,9 16,9 C13.8268613,9 12.0618102,10.7555866 11.9845547,12.9492669 L11.9845547,18.8684839 C11.9845547,19.404259 11.558073,19.8386061 11.032,19.8386061 C10.505927,19.8386061 10.0794453,19.404259 10.0794453,18.8684839 L10.0794453,16.3600826 L7,16.3600826 L7,18.9019364 C7,21.1651979 8.80131387,23 11.0235912,23 C13.2264234,23 15.0119708,21.1965095 15.0429781,18.9608128 L15.0474453,13.114656 C15.0474453,12.578881 15.473927,12.1445339 16,12.1445339 C16.526073,12.1445339 16.9525547,12.578881 16.9525547,13.114656 L16.9525547,14.2429415 Z" id="stumbleupon-Fill-1" mask="url(#stumbleupon-mask-2)"/>
</symbol><symbol viewBox="0 0 22 22" id="icon-tag-solid">
  <path id="tag-solid-tag-solid_2_" data-name="tag-solid (2)" d="M0,34.509v7.519a3.22,3.22,0,0,0,.94,2.278l8.851,8.851a3.217,3.217,0,0,0,4.551,0l6.714-6.714a3.217,3.217,0,0,0,0-4.551L12.206,33.04a3.22,3.22,0,0,0-2.278-.94H2.414A2.407,2.407,0,0,0,0,34.509Zm5.633,1.609a1.609,1.609,0,1,1-1.609,1.609A1.609,1.609,0,0,1,5.633,36.118Z" transform="translate(0 -32.1)" fill="#fff"/>
</symbol><symbol viewBox="0 0 32 32" id="icon-tumblr">
    <path d="M23.852762,25.5589268 C23.2579209,25.8427189 22.1195458,26.089634 21.2697728,26.1120809 C18.7092304,26.1810247 18.2121934,24.3131275 18.1897466,22.9566974 L18.1897466,12.9951133 L24.6159544,12.9951133 L24.6159544,8.15140729 L18.2137967,8.15140729 L18.2137967,0 L13.5256152,0 C13.4486546,0 13.3139736,0.0673405008 13.2963368,0.238898443 C13.0221648,2.73370367 11.8533261,7.11243957 7,8.86168924 L7,12.9951133 L10.2387574,12.9951133 L10.2387574,23.4521311 C10.2387574,27.0307977 12.8794671,32.1166089 19.8508122,31.9979613 C22.2013164,31.9578777 24.8131658,30.9718204 25.3919735,30.1236507 L23.852762,25.5589268"/>
</symbol><symbol viewBox="0 0 43 32" id="icon-twitter">
<path d="M36.575 5.229c1.756-0.952 3.105-2.46 3.74-4.257-1.644 0.882-3.464 1.522-5.402 1.867-1.551-1.495-3.762-2.429-6.209-2.429-4.697 0-8.506 3.445-8.506 7.694 0 0.603 0.075 1.19 0.22 1.753-7.069-0.321-13.337-3.384-17.532-8.039-0.732 1.136-1.152 2.458-1.152 3.868 0 2.669 1.502 5.024 3.784 6.404-1.394-0.040-2.706-0.386-3.853-0.962-0.001 0.032-0.001 0.064-0.001 0.097 0 3.728 2.932 6.837 6.823 7.544-0.714 0.176-1.465 0.27-2.241 0.27-0.548 0-1.081-0.048-1.6-0.138 1.083 3.057 4.224 5.281 7.946 5.343-2.911 2.064-6.579 3.294-10.564 3.294-0.687 0-1.364-0.036-2.029-0.108 3.764 2.183 8.235 3.457 13.039 3.457 15.646 0 24.202-11.724 24.202-21.891 0-0.334-0.008-0.665-0.025-0.995 1.662-1.085 3.104-2.439 4.244-3.982-1.525 0.612-3.165 1.025-4.885 1.211z"/>
</symbol><symbol viewBox="0 0 32 32" id="icon-youtube">
    <path d="M31.6634051,8.8527593 C31.6634051,8.8527593 31.3509198,6.64879843 30.3919217,5.67824658 C29.1757339,4.40441487 27.8125088,4.39809002 27.1873503,4.32353816 C22.7118278,4 15.9983092,4 15.9983092,4 L15.984407,4 C15.984407,4 9.27104501,4 4.79536595,4.32353816 C4.17017613,4.39809002 2.80745205,4.40441487 1.59082583,5.67824658 C0.631890411,6.64879843 0.319843444,8.8527593 0.319843444,8.8527593 C0.319843444,8.8527593 0,11.4409393 0,14.0290881 L0,16.4554834 C0,19.0436008 0.319843444,21.6317495 0.319843444,21.6317495 C0.319843444,21.6317495 0.631890411,23.8357417 1.59082583,24.8062935 C2.80745205,26.0801566 4.40557339,26.0398591 5.11736986,26.1733699 C7.67602348,26.4187241 15.9913894,26.4946536 15.9913894,26.4946536 C15.9913894,26.4946536 22.7118278,26.4845401 27.1873503,26.1610333 C27.8125088,26.0864501 29.1757339,26.0801566 30.3919217,24.8062935 C31.3509198,23.8357417 31.6634051,21.6317495 31.6634051,21.6317495 C31.6634051,21.6317495 31.9827789,19.0436008 31.9827789,16.4554834 L31.9827789,14.0290881 C31.9827789,11.4409393 31.6634051,8.8527593 31.6634051,8.8527593 Z M12.6895342,19.39582 L12.6880626,10.4095186 L21.3299413,14.9183249 L12.6895342,19.39582 Z" id="youtube-Imported-Layers"/>
</symbol></svg>