<svg version="1.1" id="Layer_1" xmlns="http://www.w3.org/2000/svg" xmlns:xlink="http://www.w3.org/1999/xlink" x="0px" y="0px"
	 viewBox="0 0 64 64" style="enable-background:new 0 0 64 64;" xml:space="preserve">
<path class="st0" d="M26.9,58.3c0,2.6-2.1,4.8-4.8,4.8s-4.8-2.1-4.8-4.8s2.1-4.8,4.8-4.8S26.9,55.6,26.9,58.3z M48.5,53.5
	c-2.6,0-4.8,2.1-4.8,4.8s2.1,4.8,4.8,4.8c2.6,0,4.8-2.1,4.8-4.8S51.1,53.5,48.5,53.5z M35.6,31.9c0-2.2-1.8-3.9-3.9-3.9H3.9
	C1.8,28,0,29.7,0,31.9c0,2.2,1.8,3.9,3.9,3.9h27.7C33.9,35.9,35.6,34.1,35.6,31.9z M63.3,15.9c-0.8-1-2-1.7-3.3-1.7H16.2l-2.4-9.9
	c-0.4-1.8-2-3.1-3.9-3.1H4c-2.2,0-4,1.8-4,4s1.8,4,4,4h2.7l2.4,9.9c0.4,1.8,2,3.1,3.9,3.1h41.4l-6.6,19.5H14c-2.2,0-4,1.8-4,4
	s1.8,4,4,4h36.7c1.7,0,3.2-1.1,3.8-2.7l9.3-27.5C64.2,18.3,64,16.9,63.3,15.9z"/>
</svg>
