<?xml version="1.0" encoding="utf-8"?>
<!-- Generator: Adobe Illustrator 27.8.1, SVG Export Plug-In . SVG Version: 6.00 Build 0)  -->
<svg version="1.1" id="Layer_1" xmlns="http://www.w3.org/2000/svg" xmlns:xlink="http://www.w3.org/1999/xlink" x="0px" y="0px"
	 viewBox="0 0 60.4 42" style="enable-background:new 0 0 60.4 42;" xml:space="preserve">
<style type="text/css">
	.st0r{fill:#FFFFFF;}
	.st1r{fill:#FF6F00;}
</style>
<g>
	<path id="Rectangle_54" class="st0r" d="M2,0h56.4c1.1,0,2,0.9,2,2v38c0,1.1-0.9,2-2,2H2c-1.1,0-2-0.9-2-2V2C0,0.9,0.9,0,2,0z"/>
	<g>
		<path d="M52.5,21.6c1.2-0.2,1.8-1,1.8-2.3c0-2.8-3-2.4-5.2-2.4l0,8.1h1.6v-3.2H51l2.2,3.2h1.9L52.5,21.6z M51.2,20.6h-0.5v-2.4
			h0.5c1,0,1.5,0.4,1.5,1.2C52.8,20.2,52.2,20.6,51.2,20.6z"/>
		<polygon points="43.7,16.9 48.1,16.9 48.1,18.3 45.2,18.3 45.2,20.1 48,20.1 48,21.4 45.2,21.4 45.2,23.6 48.1,23.6 48.1,25 
			43.7,25 		"/>
		<polygon points="36.9,16.9 39.1,22.3 41.3,16.9 43,16.9 39.5,25.2 38.6,25.2 35.2,16.9 		"/>
		<path class="st1r" d="M31.4,16.6c2.4,0,4.4,2,4.4,4.4c0,2.4-2,4.4-4.4,4.4c-2.4,0-4.4-2-4.4-4.4C27,18.6,29,16.6,31.4,16.6z"/>
		<path d="M26.6,17.2v1.9c-2-2-4.6-0.5-4.6,1.9c0,2.5,2.7,3.8,4.6,1.9v1.9c-2.9,1.4-6.2-0.6-6.2-3.8C20.3,17.9,23.6,15.7,26.6,17.2z
			"/>
		<path d="M17,23.7c1.1,0,2.2-1.5-0.3-2.4c-1.5-0.5-2-1.1-2-2.2c0-2.3,3-3.1,4.9-1.4l-0.8,1.1c-1-1.1-2.4-0.6-2.4,0.2
			c0,0.4,0.3,0.7,1.2,1c1.8,0.6,2.3,1.2,2.3,2.5c0,2.9-3.8,3.7-5.6,1.1l1-1C15.7,23.4,16.3,23.7,17,23.7L17,23.7z"/>
		<rect x="12.1" y="16.9" width="1.6" height="8.1"/>
		<path d="M7,16.9H4.7V25H7c3,0,4.3-2.2,4.3-4C11.4,18.6,9.6,16.9,7,16.9z M8.9,23c-0.5,0.4-1.1,0.6-2.2,0.6H6.3v-5.3h0.4
			c1,0,1.6,0.2,2.2,0.6c0.6,0.5,0.9,1.2,0.9,2C9.7,21.7,9.4,22.5,8.9,23z"/>
	</g>
</g>
</svg>
