<?xml version="1.0" encoding="UTF-8"?>
<svg id="Layer_1" data-name="Layer 1" xmlns="http://www.w3.org/2000/svg" viewBox="0 0 60.4 42.02">
  <defs>
    <style>
      .cls-1z {
        fill: #f79f1a;
      }

      .cls-2z {
        fill: #fff;
      }

      .cls-3z {
        fill: #1e306d;
      }
    </style>
  </defs>
  <g id="Group_49" data-name="Group 49">
    <rect id="Rectangle_3" data-name="Rectangle 3" class="cls-3z" width="60.4" height="42.02" rx="2" ry="2"/>
    <g id="Group_28" data-name="Group 28">
      <g id="Group_48" data-name="Group 48">
        <path id="Path_144" data-name="Path 144" class="cls-1z" d="m16.08,21.45l-1.25-5.94c-.2-.71-.88-1.18-1.62-1.09h-5.75l-.05.27c4.48,1.07,7.44,3.66,8.67,6.76Z"/>
        <path id="Path_145" data-name="Path 145" class="cls-2z" d="m29.4,14.54h-3.71l-2.32,13.44h3.71l2.33-13.44Z"/>
        <path id="Path_146" data-name="Path 146" class="cls-2z" d="m18.34,27.96l5.84-13.42h-3.93l-3.63,9.17-.39-1.39c-1.18-2.28-2.96-4.21-5.14-5.57l3.32,11.21h3.93Z"/>
        <path id="Path_147" data-name="Path 147" class="cls-2z" d="m39.99,23.58c.01-1.53-.98-2.69-3.12-3.65-1.3-.62-2.09-1.04-2.08-1.67,0-.56.67-1.15,2.12-1.15.95-.02,1.9.15,2.78.52l.34.15.5-2.91c-1.07-.38-2.19-.57-3.33-.56-3.67,0-6.25,1.82-6.27,4.43-.02,1.93,1.85,3.01,3.25,3.65,1.44.66,1.93,1.08,1.92,1.67-.01.9-1.15,1.31-2.22,1.31-1.2.04-2.4-.2-3.49-.7l-.48-.21-.52,3.01c1.32.48,2.72.72,4.13.71,3.9,0,6.44-1.8,6.47-4.6Z"/>
        <path id="Path_148" data-name="Path 148" class="cls-2z" d="m44.4,25.96h4.75c.11.47.45,2.02.45,2.02h3.44l-3-13.43h-2.86c-.83-.11-1.62.35-1.95,1.12l-5.51,12.32h3.9s.63-1.66.78-2.02Zm2.54-6.51s.31-.78.49-1.28l.25,1.16s.71,3.21.86,3.88h-3.08c.31-.77,1.48-3.76,1.48-3.76h0Z"/>
      </g>
    </g>
  </g>
</svg>