<?xml version="1.0" encoding="UTF-8"?>
<svg id="Layer_1" data-name="Layer 1" xmlns="http://www.w3.org/2000/svg" viewBox="0 0 60.4 42.02">
  <defs>
    <style>
      .__cls-1 {
        fill: #fff;
      }

      .__cls-1, .__cls-2 {
        fill-rule: evenodd;
      }

      .__cls-2 {
        fill: #0094cb;
      }

      .__cls-3 {
        fill: #003082;
      }
    </style>
  </defs>
  <rect id="Rectangle_52" data-name="Rectangle 52" class="__cls-3" width="60.4" height="42.02" rx="2" ry="2"/>
  <g id="Group_115" data-name="Group 115">
    <path id="Path_487" data-name="Path 487" class="__cls-1" d="m9.56,13.53c1.83,0,3.52.99,3.29,3.47-.27,2.94-1.86,4.58-4.35,4.58h-2.17c-.31,0-.46.26-.55.78l-.42,2.68c-.06.4-.27.6-.58.6h-2.02c-.32,0-.44-.21-.36-.67l1.67-10.72c.08-.52.28-.72.64-.72h4.84Zm-3.3,5.74h1.65c1.03-.04,1.72-.75,1.78-2.04.07-.68-.43-1.29-1.12-1.36-.08,0-.16,0-.23,0h-1.55s-.54,3.4-.54,3.4Zm12.1,5.55c.19-.17.37-.26.35-.05l-.07.5c-.03.26.07.4.31.4h1.8c.3,0,.45-.12.52-.59l1.11-6.96c.06-.35-.03-.52-.29-.52h-1.98c-.18,0-.26.1-.31.37l-.07.43c-.04.22-.14.26-.24.04-.34-.79-1.19-1.15-2.39-1.13-2.66.05-4.8,2.2-4.84,4.86-.21,1.83,1.1,3.49,2.93,3.7.13.01.25.02.38.02,1.04.07,2.06-.33,2.79-1.08m-1.5-1.07c-1,.04-1.84-.73-1.88-1.72,0-.13,0-.27.03-.4.22-1.21,1.26-2.09,2.48-2.12,1-.04,1.84.73,1.88,1.73,0,.13,0,.26-.03.39-.22,1.21-1.26,2.09-2.48,2.12m9.05-6.17h-1.82c-.38,0-.53.28-.41.63l2.26,6.63-2.23,3.15c-.19.26-.04.5.22.5h2.05c.24.03.48-.09.61-.3l6.96-9.99c.22-.31.11-.63-.24-.63h-1.94c-.33,0-.47.13-.66.41l-2.9,4.21-1.29-4.22c-.08-.27-.34-.44-.62-.39"/>
    <path id="Path_488" data-name="Path 488" class="__cls-2" d="m40.79,13.53c1.83,0,3.52.99,3.29,3.47-.27,2.94-1.86,4.58-4.35,4.58h-2.17c-.31,0-.46.26-.55.78l-.42,2.68c-.06.4-.27.6-.58.6h-2.02c-.32,0-.43-.21-.36-.67l1.67-10.72c.08-.52.28-.72.64-.72h4.85Zm-3.3,5.74h1.65c1.03-.04,1.72-.75,1.79-2.04.07-.68-.43-1.29-1.12-1.36-.08,0-.15,0-.23,0h-1.55s-.54,3.4-.54,3.4Zm12.09,5.55c.18-.17.37-.26.35-.05l-.07.5c-.03.26.07.4.31.4h1.8c.3,0,.45-.12.52-.59l1.11-6.95c.06-.35-.03-.52-.29-.52h-1.98c-.18,0-.26.1-.31.37l-.07.43c-.04.22-.14.26-.24.04-.34-.79-1.19-1.15-2.39-1.13-2.66.06-4.8,2.2-4.84,4.86-.21,1.83,1.1,3.49,2.93,3.7.13.01.25.02.38.02,1.04.07,2.06-.33,2.79-1.08m-1.5-1.07c-1,.04-1.84-.73-1.88-1.73,0-.13,0-.27.03-.4.22-1.21,1.26-2.09,2.48-2.12,1-.04,1.84.74,1.88,1.73,0,.13,0,.26-.03.39-.22,1.21-1.26,2.09-2.48,2.12m8.29,1.93h-2.07c-.14,0-.25-.1-.26-.23,0-.02,0-.04,0-.06l1.82-11.55c.03-.16.18-.28.35-.29h2.07c.14,0,.25.1.26.23,0,.02,0,.04,0,.06l-1.82,11.55c-.03.16-.18.28-.35.29"/>
  </g>
</svg>