<?xml version="1.0" encoding="UTF-8"?>
<svg id="Layer_1" data-name="Layer 1" xmlns="http://www.w3.org/2000/svg" viewBox="0 0 60.4 42.02">
  <defs>
    <style>
      .cls-1, .cls-2 {
        fill: #fff;
      }

      .cls-2, .cls-3 {
        fill-rule: evenodd;
      }

      .cls-4 {
        fill: #ee8414;
      }

      .cls-5 {
        fill: #130b5e;
      }

      .cls-6 {
        fill: #e20020;
      }

      .cls-3, .cls-7 {
        fill: #1e306d;
      }
    </style>
  </defs>
  <g id="mastercard.svg">
    <rect id="Rectangle_4" data-name="Rectangle 4" class="cls-5" x="0" width="60.4" height="42.02" rx="2" ry="2"/>
  </g>
  <g id="master-card">
    <path id="Path_224" data-name="Path 224" class="cls-5" d="m3.84,4.38v33.7h52.89V4.38H3.84Z"/>
    <path id="Path_225" data-name="Path 225" class="cls-4" d="m25.38,21.28c.13-8.14,6.84-14.63,14.98-14.5,8.14.13,14.63,6.84,14.5,14.98-.13,8.05-6.69,14.5-14.74,14.5-8.21-.07-14.81-6.78-14.74-14.99Z"/>
    <path id="Path_226" data-name="Path 226" class="cls-6" d="m30.25,10.12c-.46.42-.9.87-1.29,1.36h2.62c.48.52.89,1.1,1.23,1.73h-5.13s-.5.79-.83,1.47h6.78c.31.57.56,1.18.75,1.8h-8.24c-.16.46-.29.94-.4,1.42h9.02c.59,2.71.46,5.54-.39,8.19h-8.2c.15.52.34,1.02.57,1.5h7.04c-.28.6-.7,1.36-.93,1.74h-5.16c.3.48.63.94.99,1.38h3.18c-.48.62-1.02,1.19-1.61,1.7h-.02.03c-2.69,2.48-6.21,3.86-9.86,3.86-8.28-.14-14.88-6.95-14.74-15.23.13-8.09,6.66-14.61,14.74-14.74,3.65,0,7.16,1.37,9.84,3.83h0Z"/>
    <path id="Path_227" data-name="Path 227" class="cls-7" d="m22.98,19.2l-.24,1.33-1.29-.03s-.65.17-.65.44.48.61,1.19.92.75,1.15.68,1.73c-.07.58-.17,1.78-2.24,1.84-.62.04-1.24-.03-1.84-.2l.27-1.36s1.53.41,1.87.17.75-.65.1-.92-1.7-.71-1.7-1.8c-.09-.84.36-1.65,1.12-2.01.88-.27,1.82-.31,2.72-.1h0Z"/>
    <path id="Path_228" data-name="Path 228" class="cls-7" d="m12.76,25.25h-1.5l.87-5.17-1.86,5.14h-1.04l-.25-5.34-.91,5.37h-1.42l1.34-7.89h1.72l.6,4.54,2.01-4.54h1.77l-1.34,7.89Z"/>
    <path id="Path_229" data-name="Path 229" class="cls-7" d="m24.32,25.38c-.38.03-.75-.08-1.05-.32-.23-.27-.34-.63-.32-.98,0-.1.01-.21.03-.31.01-.11.03-.24.05-.38l.9-5.05h1.41l-.2.99h1.31l-.22,1.24h-1.32l-.36,2.15c-.02.14-.05.28-.07.44-.02.13-.03.25-.03.38-.02.16.02.32.13.44.12.09.26.14.41.13.1,0,.19-.02.28-.05.1-.03.2-.08.29-.13h.12l-.22,1.26c-.16.06-.33.1-.5.13-.21.04-.42.05-.63.05h0Z"/>
    <path id="Path_230" data-name="Path 230" class="cls-7" d="m34.44,20.99c-.34-.25-.81-.17-1.06.17-.03.04-.06.09-.08.13l-.68,3.98h-1.41l1.01-5.94h1.41l-.03.48c.34-.36.83-.54,1.32-.47-.24.53-.41,1.08-.5,1.65h0Z"/>
    <path id="Path_231" data-name="Path 231" class="cls-7" d="m37.1,25.41c-.7.04-1.37-.26-1.82-.79-.47-.66-.7-1.45-.64-2.26,0-.71.09-1.42.28-2.1.17-.58.43-1.13.78-1.63.31-.43.71-.78,1.17-1.04.43-.25.92-.38,1.42-.38.38,0,.76.06,1.12.17.17.06.49.21.49.21l-.33,1.87c-.14-.19-.31-.35-.49-.49-.26-.17-.56-.25-.86-.25-.62.02-1.17.39-1.44.95-.41.74-.61,1.57-.57,2.42-.04.48.07.96.31,1.38.22.28.56.43.91.41.36,0,.71-.1,1.01-.29.15-.1.3-.2.44-.32l-.33,1.79s-.17.08-.25.11c-.2.08-.37.13-.52.17-.23.04-.46.07-.69.06h0Z"/>
    <path id="Path_232" data-name="Path 232" class="cls-7" d="m16.23,25.07c-.05.04-.11.08-.16.11-.13.07-.27.14-.41.19-.18.04-.36.06-.54.06-.34,0-.67-.14-.89-.41-.24-.31-.37-.7-.35-1.09-.01-.41.07-.82.24-1.2.16-.32.42-.59.73-.77.33-.2.69-.33,1.07-.4l.29-.05c.35-.07.71-.11,1.07-.13,0-.04,0-.07.01-.11.01-.05.01-.1.01-.15.02-.21-.08-.42-.26-.54-.24-.11-.51-.16-.77-.14h-.07c-.24.02-.48.07-.7.16-.21.08-.42.17-.63.27h-.13l.21-1.41c.25-.08.5-.15.76-.19.16-.04.32-.07.49-.08.18-.03.36-.04.54-.03.53-.04,1.06.09,1.52.36.34.28.52.7.48,1.14,0,.09,0,.18-.01.27-.01.11-.02.2-.03.3l-.69,4.05h-1.39l.1-.63c-.08.08-.2.17-.32.29-.07.05-.13.09-.19.14h0Zm0-2.47c-.13.03-.26.07-.39.13-.15.07-.28.19-.36.33-.1.17-.14.37-.13.57-.02.16.04.32.16.43.15.09.32.14.49.13.08,0,.15-.02.22-.05.08-.02.15-.05.22-.08.16-.1.31-.21.44-.33l.21-1.26c-.24.03-.49.06-.7.11-.06,0-.12.01-.18.03h0Z"/>
    <path id="Path_233" data-name="Path 233" class="cls-7" d="m28.42,20.36c-.2.03-.37.13-.5.28-.22.25-.37.56-.45.88h1.9c0-.06.01-.11.01-.17,0-.05.01-.11.01-.16.01-.23-.06-.46-.2-.65-.14-.15-.34-.23-.55-.22-.07,0-.15.01-.22.03Zm0,3.73h.21c.3,0,.6-.07.87-.21.25-.13.49-.29.71-.47h.16l-.27,1.53c-.27.16-.56.28-.86.36-.27.08-.55.12-.83.13h-.13c-.65.04-1.29-.21-1.74-.68-.43-.52-.65-1.18-.61-1.85,0-.5.06-1,.2-1.49.12-.43.31-.84.57-1.2.24-.33.55-.6.9-.79.25-.13.52-.22.8-.27.13-.01.26-.02.39-.01.55-.04,1.09.15,1.48.54.36.45.53,1.01.49,1.58,0,.24-.01.48-.05.71-.03.22-.08.46-.14.68h-3.26v.13c-.02.35.1.69.33.96.2.21.48.34.77.35h0Z"/>
    <path id="Path_234" data-name="Path 234" class="cls-7" d="m41.62,25.07c-.05.04-.11.08-.18.11-.13.07-.27.14-.41.19-.17.04-.35.06-.53.06-.35,0-.68-.14-.9-.41-.24-.31-.36-.7-.34-1.09-.01-.41.07-.82.25-1.2.16-.32.41-.59.72-.77.33-.2.7-.34,1.08-.4.1-.02.19-.03.29-.05.35-.07.7-.11,1.06-.13.01-.03.01-.06.02-.11s.01-.1.01-.16c.01-.21-.08-.42-.26-.54-.24-.11-.51-.16-.77-.14h-.06c-.24.02-.48.07-.7.16-.21.08-.42.17-.63.27h-.13l.2-1.41c.25-.09.51-.15.77-.19.16-.04.32-.07.49-.08.18-.03.36-.04.54-.03.53-.04,1.06.09,1.51.36.33.28.51.7.48,1.14,0,.09,0,.18-.01.27-.01.11-.02.2-.03.3l-.68,4.05h-1.4l.1-.63c-.09.08-.2.17-.33.29l-.17.14h0Zm0-2.47c-.14.03-.27.07-.4.13-.15.07-.27.19-.36.33-.09.18-.14.37-.13.57-.02.16.05.32.18.43.14.09.31.14.48.13.08,0,.16-.02.23-.05.07-.02.14-.05.21-.08.16-.09.31-.21.44-.33l.22-1.26c-.26.03-.49.06-.71.11-.05,0-.11.01-.16.03h0Z"/>
    <path id="Path_235" data-name="Path 235" class="cls-7" d="m47.57,20.99c-.34-.25-.81-.17-1.06.17-.03.04-.06.09-.08.13l-.67,3.98h-1.41l1.01-5.94h1.41l-.03.48c.34-.36.83-.54,1.32-.47-.24.53-.41,1.08-.5,1.65h0Z"/>
    <path id="Path_236" data-name="Path 236" class="cls-3" d="m50.34,20.58c-.07.03-.14.08-.2.13-.19.14-.35.33-.47.54-.12.26-.21.53-.26.81-.07.31-.1.62-.1.93-.02.27.05.54.19.78.13.17.34.27.56.25.1,0,.19-.02.28-.06.05-.02.09-.04.13-.06.14-.08.28-.17.4-.27l.5-2.92c-.09-.06-.19-.1-.3-.13-.1-.04-.21-.06-.31-.06-.14,0-.28.03-.41.08h0Zm0,4.36c-.11.1-.22.19-.35.27-.11.06-.22.12-.34.16-.13.03-.27.05-.41.05-.42,0-.8-.2-1.03-.56-.27-.49-.4-1.04-.37-1.6,0-.54.06-1.08.2-1.6.12-.46.3-.9.55-1.31.21-.35.48-.65.81-.89.27-.2.6-.31.93-.33h.05c.21,0,.43.03.63.09.2.08.38.18.55.32l.31-2.07h1.41l-1.29,7.78h-1.41l.1-.62c-.13.11-.25.2-.35.3h0Z"/>
    <path id="Path_237" data-name="Path 237" class="cls-1" d="m23.26,18.99l-.24,1.33-1.29-.03s-.65.17-.65.44.48.61,1.19.92.75,1.16.68,1.73-.17,1.78-2.24,1.84c-.62.04-1.24-.03-1.84-.2l.27-1.36s1.53.41,1.87.17.75-.65.1-.92-1.7-.72-1.7-1.8c-.09-.84.36-1.65,1.12-2.01.88-.27,1.82-.31,2.72-.1h0Z"/>
    <path id="Path_238" data-name="Path 238" class="cls-1" d="m13.04,25.04h-1.5l.87-5.17-1.86,5.14h-1.03l-.25-5.34-.91,5.37h-1.42l1.34-7.89h1.72l.6,4.54,2.01-4.54h1.77l-1.34,7.89Z"/>
    <path id="Path_239" data-name="Path 239" class="cls-1" d="m24.6,25.16c-.38.03-.75-.08-1.05-.32-.23-.27-.34-.62-.32-.98,0-.11,0-.21.02-.32.01-.11.03-.24.05-.38l.9-5.05h1.41l-.2.99h1.32l-.22,1.25h-1.31l-.36,2.15c-.02.14-.05.28-.07.44-.02.13-.03.25-.03.38-.02.16.02.32.13.44.12.09.26.14.41.13.09,0,.19-.02.28-.05.1-.03.2-.08.29-.13h.12l-.22,1.26c-.16.06-.33.1-.5.12-.21.03-.42.05-.63.05h0Z"/>
    <path id="Path_240" data-name="Path 240" class="cls-1" d="m34.72,20.77c-.34-.25-.81-.17-1.06.17-.03.04-.06.09-.08.13l-.68,3.98h-1.41l1.01-5.94h1.41l-.03.48c.34-.37.83-.54,1.32-.48-.24.53-.4,1.08-.49,1.66h0Z"/>
    <path id="Path_241" data-name="Path 241" class="cls-1" d="m37.38,25.2c-.7.04-1.37-.26-1.82-.79-.47-.66-.7-1.45-.64-2.26,0-.71.09-1.42.28-2.1.17-.58.43-1.13.78-1.63.31-.43.71-.78,1.17-1.04.43-.25.92-.38,1.42-.38.38,0,.76.06,1.12.17.17.06.49.21.49.21l-.33,1.87c-.14-.19-.31-.35-.49-.49-.26-.17-.56-.25-.86-.25-.62.02-1.17.39-1.43.95-.41.74-.61,1.58-.57,2.42-.04.48.07.96.32,1.38.22.28.56.43.91.41.36,0,.71-.1,1.01-.28.15-.1.3-.21.44-.32l-.33,1.79s-.17.08-.25.11c-.2.08-.37.13-.52.17-.23.04-.46.07-.69.07h0Z"/>
    <path id="Path_242" data-name="Path 242" class="cls-1" d="m16.51,24.85c-.05.04-.11.08-.16.11-.13.07-.27.14-.41.19-.18.04-.36.06-.54.06-.34,0-.67-.14-.89-.41-.24-.31-.37-.7-.35-1.09-.01-.41.07-.82.25-1.2.16-.32.42-.59.73-.78.33-.2.69-.33,1.07-.4l.29-.05c.35-.07.71-.11,1.07-.13,0-.04,0-.07.01-.11.01-.05.01-.11.01-.16.02-.21-.08-.42-.26-.54-.24-.11-.51-.16-.77-.14h-.07c-.24.02-.48.07-.7.16-.21.08-.43.17-.63.27h-.13l.21-1.41c.25-.08.5-.15.76-.19.16-.04.32-.07.49-.08.18-.03.36-.04.54-.03.53-.04,1.06.09,1.51.36.34.28.52.7.48,1.14,0,.09,0,.18-.01.27-.01.11-.02.21-.03.3l-.68,4.05h-1.4l.1-.63c-.08.08-.2.17-.31.29-.07.04-.13.09-.19.14h0Zm0-2.47c-.13.03-.26.07-.39.13-.15.07-.28.19-.36.33-.1.17-.14.37-.13.57-.02.16.04.32.16.43.15.09.32.14.49.13.08,0,.15-.02.22-.05.08-.02.15-.05.22-.08.16-.1.3-.21.44-.33l.21-1.26c-.24.03-.49.06-.7.11-.06,0-.12.01-.18.03h0Z"/>
    <path id="Path_243" data-name="Path 243" class="cls-1" d="m28.7,20.14c-.19.03-.37.14-.5.28-.22.26-.37.56-.45.89h1.9c0-.06.01-.11.01-.17,0-.05.01-.11.01-.16.01-.23-.06-.46-.2-.65-.14-.15-.34-.23-.55-.22-.07,0-.15.01-.22.03h0Zm0,3.73h.21c.3,0,.6-.07.88-.21.25-.13.49-.29.71-.47h.16l-.27,1.53c-.27.16-.56.28-.86.37-.27.07-.55.12-.83.13h-.13c-.65.04-1.29-.21-1.74-.68-.43-.52-.65-1.18-.61-1.85,0-.5.06-1,.2-1.49.12-.43.31-.84.57-1.2.24-.32.55-.59.9-.79.25-.13.52-.22.8-.27.13-.01.26-.02.39-.01.55-.04,1.09.15,1.48.54.36.45.53,1.01.49,1.58,0,.24-.01.48-.05.71-.03.22-.08.46-.14.68h-3.26v.12c-.02.35.1.7.33.96.2.21.48.34.77.35h0Z"/>
    <path id="Path_244" data-name="Path 244" class="cls-1" d="m41.9,24.85c-.05.04-.11.08-.17.11-.13.07-.27.14-.41.19-.17.04-.35.06-.53.06-.35,0-.68-.14-.9-.41-.24-.31-.36-.7-.34-1.09-.01-.41.07-.82.25-1.2.16-.32.41-.59.72-.78.33-.2.7-.33,1.08-.4.09-.02.19-.03.29-.05.35-.07.71-.11,1.06-.13,0-.04.02-.07.02-.11,0-.05.01-.1.01-.16.02-.21-.08-.42-.26-.54-.24-.11-.5-.16-.77-.14h-.07c-.24.02-.48.07-.7.16-.22.08-.43.17-.63.27h-.12l.2-1.41c.25-.09.51-.15.77-.19.16-.04.32-.07.49-.08.18-.03.36-.04.54-.03.53-.04,1.06.09,1.52.36.33.28.51.7.48,1.14,0,.09,0,.18-.01.27-.01.11-.02.21-.04.3l-.69,4.05h-1.4l.11-.63c-.1.08-.2.17-.33.29l-.18.14h0Zm0-2.47c-.14.03-.27.07-.4.13-.15.07-.28.19-.36.33-.09.17-.14.37-.13.57-.02.16.05.32.18.43.14.09.31.14.48.13.08,0,.16-.02.23-.05.07-.02.14-.04.21-.08.16-.1.31-.21.44-.33l.22-1.26c-.26.03-.49.06-.71.11-.06,0-.11.01-.16.03h0Z"/>
    <path id="Path_245" data-name="Path 245" class="cls-1" d="m47.86,20.77c-.34-.25-.81-.17-1.06.17-.03.04-.06.09-.08.13l-.68,3.98h-1.41l1.01-5.94h1.41l-.03.48c.34-.37.83-.55,1.33-.48-.24.53-.41,1.08-.49,1.66h0Z"/>
    <path id="Path_246" data-name="Path 246" class="cls-2" d="m50.62,20.36c-.07.03-.14.08-.2.13-.19.14-.35.33-.47.54-.12.26-.21.53-.26.81-.07.31-.1.62-.1.93-.02.27.04.54.19.77.13.17.34.27.56.25.1,0,.19-.02.28-.06.05-.01.09-.04.13-.06.14-.08.28-.17.4-.27l.5-2.92c-.09-.06-.19-.1-.3-.13-.1-.04-.21-.06-.32-.06-.14,0-.28.03-.41.08h0Zm0,4.36c-.11.1-.23.19-.35.27-.11.06-.22.12-.34.16-.13.03-.27.05-.41.05-.42,0-.8-.2-1.03-.56-.27-.49-.4-1.04-.37-1.6,0-.54.06-1.08.2-1.6.12-.46.3-.9.55-1.31.21-.35.49-.65.82-.88.27-.2.6-.31.93-.33h.05c.21,0,.43.03.63.1.2.08.38.18.55.32l.31-2.07h1.41l-1.3,7.77h-1.41l.1-.62c-.13.11-.24.21-.35.3h0Z"/>
  </g>
</svg>