<?xml version="1.0" encoding="UTF-8"?>
<svg id="Layer_1" data-name="Layer 1" xmlns="http://www.w3.org/2000/svg" viewBox="0 0 60.4 42.02">
  <defs>
    <style>
      .cls-1d, .cls-2d {
        fill-rule: evenodd;
      }

      .cls-1d, .cls-3d {
        fill: #016fd0;
      }

      .cls-2d {
        fill: #fff;
      }
    </style>
  </defs>
  <rect id="Rectangle_5" data-name="Rectangle 5" class="cls-3d" x="0" width="60.4" height="42.02" rx="2" ry="2"/>
  <g id="american-express-seeklogo">
    <path id="Path_179" data-name="Path 179" class="cls-2d" d="m11.72,32.41v-9.48h10.04l1.08,1.4,1.11-1.4h36.44v8.83c-.62.39-1.32.62-2.06.65h-20.18l-1.21-1.5v1.5h-3.98v-2.55c-.53.27-1.12.39-1.72.36h-1.36v2.2h-6.03l-1.08-1.43-1.09,1.43h-9.98Z"/>
    <path id="Path_180" data-name="Path 180" class="cls-2d" d="m0,15.78l2.27-5.28h3.92l1.28,2.96v-2.96h4.87l.76,2.14.74-2.14h21.85v1.07c.85-.7,1.93-1.08,3.04-1.07l7.09.02,1.26,2.92v-2.94h4.07l1.12,1.68v-1.68h4.11v9.48h-4.11l-1.07-1.68v1.68h-5.98l-.6-1.5h-1.61l-.59,1.5h-4.06c-.99-.01-1.94-.39-2.66-1.05v1.05h-6.12l-1.22-1.5v1.5H5.6l-.6-1.5h-1.6l-.6,1.5H0v-4.2H0Z"/>
    <path id="Path_181" data-name="Path 181" class="cls-1d" d="m3.06,11.67L.01,18.77h1.99l.56-1.42h3.28l.56,1.42h2.03l-3.05-7.1h-2.32Zm1.13,1.65l1,2.48h-2l1-2.48Z"/>
    <path id="Path_182" data-name="Path 182" class="cls-1d" d="m8.64,18.77v-7.1h2.83s1.64,4.59,1.64,4.59l1.6-4.59h2.8v7.1h-1.77v-5.23l-1.89,5.23h-1.55l-1.89-5.23v5.23h-1.77Z"/>
    <path id="Path_183" data-name="Path 183" class="cls-1d" d="m18.73,18.77v-7.1h5.79v1.59h-4v1.21h3.9v1.5h-3.9v1.26h4v1.54h-5.79Z"/>
    <path id="Path_184" data-name="Path 184" class="cls-1d" d="m25.55,11.67v7.1h1.78v-2.52h.75l2.13,2.52h2.17l-2.34-2.62c1.12-.11,1.96-1.06,1.95-2.18,0-1.27-1.02-2.3-2.29-2.31-.06,0-.13,0-.19,0h-3.95,0Zm1.78,1.59h2.03c.43-.02.8.31.84.75-.03.43-.39.76-.81.75h-2.06v-1.49Z"/>
    <path id="Path_185" data-name="Path 185" class="cls-1d" d="m34.52,18.77h-1.81v-7.1h1.81v7.1Z"/>
    <path id="Path_186" data-name="Path 186" class="cls-1d" d="m38.82,18.77h-.39c-1.89,0-3.04-1.49-3.04-3.52-.19-1.79,1.11-3.39,2.9-3.57.21-.02.42-.02.63,0h1.96v1.68h-2.03c-.94.02-1.69.8-1.67,1.75,0,.06,0,.11.01.17-.12.95.55,1.82,1.5,1.95.14.02.28.02.42,0h.47l-.75,1.55h0Z"/>
    <path id="Path_187" data-name="Path 187" class="cls-1d" d="m42.68,11.67l-3.05,7.1h1.99l.56-1.42h3.28l.56,1.42h2.03l-3.05-7.1h-2.32Zm1.13,1.65l1,2.48h-2l1-2.48Z"/>
    <path id="Path_188" data-name="Path 188" class="cls-1d" d="m48.25,18.77v-7.1h2.26l2.88,4.46v-4.46h1.77v7.1h-2.18l-2.95-4.58v4.58h-1.77Z"/>
    <path id="Path_189" data-name="Path 189" class="cls-1d" d="m12.94,31.2v-7.1h5.79v1.59h-4v1.21h3.9v1.5h-3.9v1.26h4v1.54h-5.79Z"/>
    <path id="Path_190" data-name="Path 190" class="cls-1d" d="m41.32,31.2v-7.1h5.79v1.59h-4v1.21h3.89v1.5h-3.89v1.26h4v1.54h-5.79Z"/>
    <path id="Path_191" data-name="Path 191" class="cls-1d" d="m18.95,31.2l2.82-3.51-2.89-3.59h2.24l1.72,2.22,1.72-2.22h2.15l-2.85,3.55,2.82,3.55h-2.23l-1.67-2.19-1.63,2.19h-2.21Z"/>
    <path id="Path_192" data-name="Path 192" class="cls-1d" d="m26.9,24.1v7.1h1.82v-2.24h1.87c1.58,0,2.78-.84,2.78-2.47.03-1.29-.99-2.36-2.28-2.4-.09,0-.18,0-.27,0h-3.92,0Zm1.82,1.61h1.97c.44-.04.83.28.87.72,0,.03,0,.06,0,.1,0,.45-.37.82-.82.82-.02,0-.04,0-.06,0h-1.96v-1.63Z"/>
    <path id="Path_193" data-name="Path 193" class="cls-1d" d="m34.15,24.1v7.1h1.77v-2.52h.75l2.13,2.52h2.17l-2.34-2.62c1.12-.11,1.96-1.06,1.95-2.18,0-1.27-1.02-2.3-2.29-2.31-.06,0-.13,0-.19,0h-3.95Zm1.77,1.59h2.03c.43-.02.8.31.84.75-.03.43-.39.76-.82.75h-2.06v-1.49h0Z"/>
    <path id="Path_194" data-name="Path 194" class="cls-1d" d="m47.93,31.2v-1.54h3.56c.53,0,.75-.28.75-.6s-.23-.6-.75-.6h-1.6c-1.09.11-2.06-.69-2.17-1.78-.01-.11-.01-.23,0-.34,0-1.14.71-2.24,2.79-2.24h3.46l-.75,1.6h-2.99c-.57,0-.75.3-.75.59,0,.34.28.62.62.62.01,0,.02,0,.04,0h1.68c1.06-.16,2.05.58,2.21,1.64.02.13.03.26.02.4.08,1.17-.81,2.19-1.98,2.26-.11,0-.22,0-.33,0h-3.79Z"/>
    <path id="Path_195" data-name="Path 195" class="cls-1d" d="m54.45,31.2v-1.54h3.4c.53,0,.75-.28.75-.6s-.23-.6-.75-.6h-1.46c-1.09.11-2.06-.69-2.17-1.78-.01-.11-.01-.23,0-.34,0-1.14.71-2.24,2.79-2.24h3.39l-.75,1.6h-2.92c-.57,0-.75.3-.75.59,0,.34.28.62.62.62.01,0,.02,0,.04,0h1.53c1.06-.16,2.05.58,2.21,1.64.02.13.03.26.02.4.08,1.17-.81,2.19-1.98,2.26-.11,0-.22,0-.33,0h-3.63Z"/>
  </g>
</svg>