<?xml version="1.0" encoding="UTF-8"?>
<svg id="Layer_1" data-name="Layer 1" xmlns="http://www.w3.org/2000/svg" viewBox="0 0 60.4 42.02">
  <defs>
    <style>
      .amazon_cls-1 {
        fill: #fff;
      }

      .amazon_cls-2 {
        fill: #f8991d;
      }

      .amazon_cls-2, .amazon_cls-3 {
        fill-rule: evenodd;
      }

      .amazon_cls-3 {
        fill: #111;
      }
    </style>
  </defs>
  <rect id="Rectangle_43-2" data-name="Rectangle 43-2" class="amazon_cls-1" width="60.4" height="42.02" rx="2" ry="2"/>
  <path id="Path_476" data-name="Path 476" class="amazon_cls-2" d="m24.73,24.27c-2.24,1.52-4.89,2.33-7.59,2.32-3.42.02-6.73-1.24-9.27-3.54-.19-.17-.02-.41.21-.28,2.83,1.62,6.02,2.46,9.28,2.46,2.43-.01,4.84-.5,7.08-1.45.35-.15.64.23.3.48"/>
  <path id="Path_477" data-name="Path 477" class="amazon_cls-2" d="m25.59,23.3c-.26-.34-1.74-.16-2.4-.08-.2.02-.23-.15-.05-.28,1-.63,2.23-.74,3.32-.31.14,1.17-.29,2.34-1.16,3.13-.17.14-.33.07-.26-.12.25-.62.8-2,.54-2.34"/>
  <path id="Path_478" data-name="Path 478" class="amazon_cls-3" d="m23.24,17.11v-.8c0-.11.09-.2.2-.2h3.6c.11,0,.2.08.21.19,0,0,0,0,0,0v.68c-.05.19-.14.36-.27.5l-1.86,2.66c.71-.04,1.42.11,2.05.44.12.06.19.18.19.31v.85c0,.12-.13.25-.26.18-1.19-.61-2.61-.61-3.8,0-.12.07-.26-.07-.26-.19v-.81c-.01-.19.04-.39.13-.55l2.16-3.1h-1.88c-.11,0-.2-.08-.21-.19,0,0,0,0,0,0"/>
  <path id="Path_479" data-name="Path 479" class="amazon_cls-3" d="m10.12,22.12h-1.09c-.1,0-.19-.08-.2-.18v-5.61c0-.11.1-.2.21-.2h1.02c.11,0,.19.08.2.19v.73h.02c.25-.79,1.1-1.22,1.89-.97.46.15.83.51.97.97.31-.83,1.25-1.26,2.08-.94.28.1.52.28.7.51.27.54.37,1.16.28,1.76v3.54c0,.11-.1.2-.21.2h-1.09c-.11,0-.2-.09-.2-.2v-2.97c.02-.35,0-.7-.03-1.05-.04-.31-.33-.53-.64-.49-.29,0-.55.19-.65.46-.09.35-.12.71-.1,1.08v2.97c0,.11-.1.2-.21.2h-1.09c-.11,0-.2-.09-.2-.2v-2.97c0-.63.1-1.55-.67-1.55s-.76.9-.76,1.55v2.97c0,.11-.1.2-.21.2"/>
  <path id="Path_480" data-name="Path 480" class="amazon_cls-3" d="m30.35,17.14c-.81,0-.86,1.1-.86,1.78s-.01,2.15.85,2.15.89-1.18.89-1.9c.02-.5-.03-1-.16-1.49-.07-.33-.37-.57-.71-.54m-.01-1.15c1.62,0,2.5,1.39,2.5,3.17s-.97,3.07-2.5,3.07-2.46-1.39-2.46-3.13.88-3.11,2.46-3.11"/>
  <path id="Path_481" data-name="Path 481" class="amazon_cls-3" d="m34.94,22.12h-1.09c-.11,0-.2-.09-.2-.2v-5.61c.01-.11.1-.19.21-.18h1.01c.09,0,.17.07.19.16v.86h.02c.16-.69.79-1.16,1.49-1.14.51-.02,1,.23,1.28.66.24.55.34,1.15.29,1.75v3.54c-.02.1-.11.18-.21.18h-1.1c-.1,0-.18-.08-.19-.18v-3.05c0-.61.07-1.51-.68-1.51-.28.01-.53.19-.63.45-.13.34-.19.7-.17,1.06v3.02c0,.11-.1.2-.21.2"/>
  <path id="Path_482" data-name="Path 482" class="amazon_cls-3" d="m21.47,22.1c-.07.06-.18.07-.26.03-.25-.2-.46-.45-.63-.73-.44.54-1.11.83-1.8.8-.86.05-1.59-.6-1.64-1.46,0-.08,0-.16,0-.24-.03-.78.44-1.5,1.17-1.79.66-.22,1.36-.35,2.06-.38v-.15c.03-.27-.01-.55-.13-.79-.15-.19-.38-.3-.61-.28-.42-.03-.79.25-.88.66-.01.1-.09.18-.19.2l-1.06-.11c-.11-.01-.18-.11-.17-.22,0,0,0,0,0-.01.26-1.09,1.29-1.8,2.4-1.67h.08c.58-.02,1.16.18,1.61.54.53.5.48,1.16.48,1.88v1.7c0,.38.15.74.41,1.01.08.08.08.21,0,.29-.22.19-.62.53-.84.73h0Zm-1.1-2.67c.04.4-.03.8-.2,1.16-.14.29-.43.48-.76.5-.42,0-.67-.32-.67-.79,0-.93.83-1.1,1.63-1.1v.23Z"/>
  <path id="Path_483" data-name="Path 483" class="amazon_cls-3" d="m7.14,22.1c-.07.06-.18.07-.26.03-.25-.2-.46-.45-.63-.73-.44.54-1.11.83-1.8.8-.86.05-1.59-.6-1.64-1.45,0-.08,0-.17,0-.25-.03-.78.44-1.5,1.17-1.79.66-.22,1.36-.35,2.06-.38v-.14c.03-.27-.01-.55-.13-.79-.15-.19-.38-.3-.61-.28-.42-.03-.79.25-.88.66-.01.1-.09.18-.19.2l-1.06-.11c-.11-.01-.18-.11-.17-.21,0,0,0-.01,0-.02.26-1.09,1.29-1.8,2.4-1.67h.08c.58-.02,1.16.18,1.61.54.53.5.48,1.16.48,1.88v1.7c0,.38.15.74.41,1.02.08.08.08.21,0,.29-.22.19-.62.53-.84.73h0Zm-1.1-2.67c.04.4-.03.8-.2,1.16-.14.29-.43.48-.76.5-.42,0-.66-.32-.66-.79,0-.93.84-1.1,1.63-1.1v.23Z"/>
  <path id="Path_484" data-name="Path 484" class="amazon_cls-3" d="m53.09,24.13v-.41c0-.12.06-.2.18-.19.26.05.52.05.78.02.3-.07.54-.28.64-.57.18-.41.3-.74.37-.96l-2.27-5.64c-.04-.1-.05-.27.14-.27h.8c.12,0,.22.08.25.19l1.65,4.58,1.57-4.58c.03-.11.13-.19.25-.19h.75c.19,0,.18.18.14.27l-2.25,5.81c-.29.77-.68,2.01-1.56,2.22-.44.11-.89.09-1.32-.06-.07-.05-.12-.13-.11-.22"/>
  <path id="Path_485" data-name="Path 485" class="amazon_cls-3" d="m52.04,21.77c0,.11-.09.19-.19.19h-.56c-.11,0-.2-.08-.22-.19l-.06-.38c-.27.23-.58.41-.92.54-.67.29-1.43.26-2.06-.1-.47-.32-.74-.86-.71-1.42-.01-.45.15-.88.44-1.21.45-.45,1.07-.69,1.71-.65.5,0,1.01.06,1.49.2v-.77c0-.78-.33-1.12-1.2-1.12-.64,0-1.27.11-1.88.32-.09,0-.18-.07-.18-.16,0,0,0-.02,0-.02v-.44c0-.11.08-.2.19-.24.63-.24,1.3-.37,1.98-.38.99,0,2.16.22,2.16,1.75v4.09Zm-1.08-1.12v-1.16c-.41-.09-.82-.14-1.24-.14-.37-.03-.73.09-1.01.32-.16.18-.24.42-.24.66-.02.3.11.59.36.77.36.18.78.2,1.16.05.36-.09.69-.26.98-.5"/>
  <path id="Path_486" data-name="Path 486" class="amazon_cls-3" d="m43.77,16.88c1.24,0,1.58.98,1.58,2.1.07.65-.12,1.3-.52,1.81-.3.28-.71.41-1.11.37-.52-.04-1.03-.23-1.44-.55v-3.2c.43-.33.96-.52,1.5-.53m-1.69,7.45h-.75c-.11,0-.19-.09-.19-.19h0v-7.82c0-.1.09-.19.19-.19h.57c.11,0,.21.08.22.19l.06.41c.52-.48,1.19-.76,1.89-.79,1.85,0,2.46,1.52,2.46,3.11,0,1.7-.93,3.06-2.5,3.06-.65,0-1.28-.24-1.76-.67v2.7c0,.11-.09.19-.19.19h0"/>
</svg>